<svg width="20" height="20" viewBox="0 0 20 20" fill="none" xmlns="http://www.w3.org/2000/svg">
<path fill-rule="evenodd" clip-rule="evenodd" d="M9.40986 0.211914C9.14556 0.212209 8.88919 0.302258 8.68275 0.467308C8.47631 0.632358 8.33205 0.862625 8.27359 1.12039L7.94698 2.56132C7.4255 2.7141 6.93146 2.91903 6.46488 3.17611L5.21607 2.3884C4.99219 2.24709 4.7269 2.18614 4.46379 2.21556C4.20068 2.24499 3.95541 2.36305 3.76828 2.55034L2.93666 3.38196C2.74971 3.56899 2.63185 3.81401 2.60243 4.07682C2.57301 4.33962 2.63376 4.60463 2.77473 4.82838L3.56244 6.07993C3.30627 6.5456 3.10179 7.03918 2.94901 7.56065L1.50808 7.88727C1.25009 7.94578 1.01965 8.09024 0.854575 8.29696C0.6895 8.50368 0.599593 8.76037 0.599609 9.02491V10.201C0.599593 10.4655 0.6895 10.7222 0.854575 10.9289C1.01965 11.1357 1.25009 11.2801 1.50808 11.3386L2.94901 11.6652C3.10088 12.1867 3.30581 12.6808 3.56381 13.1473L2.77473 14.3962C2.63341 14.62 2.57246 14.8853 2.60189 15.1484C2.63132 15.4115 2.74937 15.6568 2.93666 15.8439L3.76965 16.6756C3.95669 16.8625 4.2017 16.9804 4.46451 17.0098C4.72732 17.0392 4.99233 16.9785 5.21607 16.8375L6.46625 16.0498C6.93284 16.306 7.42641 16.5104 7.94698 16.6632L8.27359 18.1041C8.3321 18.3621 8.47657 18.5926 8.68328 18.7576C8.89 18.9227 9.14669 19.0126 9.41124 19.0126H10.5873C10.8519 19.0126 11.1085 18.9227 11.3153 18.7576C11.522 18.5926 11.6664 18.3621 11.725 18.1041L12.0516 16.6632C12.573 16.5113 13.0671 16.3069 13.5337 16.0498L14.7838 16.8375C15.0076 16.9785 15.2726 17.0392 15.5354 17.0098C15.7982 16.9804 16.0432 16.8625 16.2303 16.6756L17.0619 15.8439C17.2488 15.6569 17.3667 15.4119 17.3961 15.1491C17.4255 14.8863 17.3648 14.6213 17.2238 14.3975L16.4361 13.1473C16.6941 12.6808 16.899 12.1867 17.0509 11.6652L18.4918 11.3386C18.7498 11.2801 18.9803 11.1357 19.1453 10.9289C19.3104 10.7222 19.4003 10.4655 19.4003 10.201V9.02491C19.4006 8.76014 19.3109 8.50313 19.1458 8.29613C18.9807 8.08913 18.7501 7.94446 18.4918 7.88589L17.0509 7.56065C16.899 7.03918 16.6946 6.54514 16.4375 6.07856L17.2252 4.82975C17.3665 4.60587 17.4275 4.34058 17.398 4.07747C17.3686 3.81436 17.2505 3.56909 17.0633 3.38196L16.2316 2.55034C16.0445 2.36305 15.7992 2.24499 15.5361 2.21556C15.273 2.18614 15.0077 2.24709 14.7838 2.3884L13.535 3.17611C13.0652 2.91715 12.5681 2.71096 12.0529 2.56132L11.725 1.12039C11.6664 0.862396 11.522 0.631956 11.3153 0.46688C11.1085 0.301804 10.8519 0.211898 10.5873 0.211914H9.40986ZM6.45939 4.55254C7.19622 4.03639 8.03692 3.68747 8.92269 3.53017L9.41124 1.37838H10.5873L11.0759 3.53017C11.9615 3.68705 12.8022 4.03551 13.5392 4.55117L15.4055 3.3751L16.2385 4.20672L15.0611 6.07307C15.5688 6.79628 15.9229 7.63201 16.0821 8.53637L18.2338 9.02491V10.201L16.0821 10.6882C15.9254 11.5743 15.5769 12.4155 15.0611 13.1528L16.2371 15.0192L15.4055 15.8508L13.5392 14.6747C12.8021 15.1899 11.9614 15.5379 11.0759 15.6944L10.5873 17.8461H9.41124L8.92269 15.6944C8.03751 15.5373 7.1973 15.1888 6.46076 14.6734L4.59442 15.8508L3.76142 15.0192L4.93887 13.1528C4.42302 12.4155 4.07456 11.5743 3.91786 10.6882L1.76608 10.2024V9.02629L3.91786 8.53774C4.07494 7.65256 4.42339 6.81235 4.93887 6.07581L3.76142 4.20535L4.59304 3.37373L6.45939 4.55254ZM12.0941 9.61226C12.0941 10.1673 11.8736 10.6996 11.4811 11.0921C11.0887 11.4846 10.5564 11.705 10.0013 11.705C9.44629 11.705 8.91399 11.4846 8.52151 11.0921C8.12904 10.6996 7.90855 10.1673 7.90855 9.61226C7.90855 9.05722 8.12904 8.52492 8.52151 8.13245C8.91399 7.73997 9.44629 7.51948 10.0013 7.51948C10.5564 7.51948 11.0887 7.73997 11.4811 8.13245C11.8736 8.52492 12.0941 9.05722 12.0941 9.61226ZM13.3292 9.61226C13.3292 10.4949 12.9786 11.3413 12.3545 11.9654C11.7304 12.5895 10.8839 12.9401 10.0013 12.9401C9.11873 12.9401 8.27227 12.5895 7.64818 11.9654C7.02408 11.3413 6.67347 10.4949 6.67347 9.61226C6.67347 8.72966 7.02408 7.88321 7.64818 7.25911C8.27227 6.63502 9.11873 6.2844 10.0013 6.2844C10.8839 6.2844 11.7304 6.63502 12.3545 7.25911C12.9786 7.88321 13.3292 8.72966 13.3292 9.61226Z" fill="#CFEC57"/>
</svg>
