<svg width="24" height="25" viewBox="0 0 24 25" fill="none" xmlns="http://www.w3.org/2000/svg">
<g clip-path="url(#clip0_2088_23235)">
<path d="M16.6667 0.211914H7.33333C6.97971 0.211914 6.64057 0.35239 6.39052 0.602438C6.14048 0.852487 6 1.19163 6 1.54525V17.5452C6 17.8989 6.14048 18.238 6.39052 18.4881C6.64057 18.7381 6.97971 18.8786 7.33333 18.8786H16.6667C17.0203 18.8786 17.3594 18.7381 17.6095 18.4881C17.8595 18.238 18 17.8989 18 17.5452V1.54525C18 1.19163 17.8595 0.852487 17.6095 0.602438C17.3594 0.35239 17.0203 0.211914 16.6667 0.211914ZM7.33333 1.54525H16.6667V13.5452H7.33333V1.54525ZM7.33333 17.5452V14.8786H16.6667V17.5452H7.33333Z" fill="#CFEC57"/>
<path d="M11.334 18.2119H12.6673V19.5452H11.334V18.2119Z" fill="#CFEC57"/>
</g>
<defs>
<clipPath id="clip0_2088_23235">
<rect width="24" height="24" fill="white" transform="translate(0 0.211914)"/>
</clipPath>
</defs>
</svg>
