<svg width="24" height="25" viewBox="0 0 24 25" fill="none" xmlns="http://www.w3.org/2000/svg">
<g clip-path="url(#clip0_2088_23250)">
<path d="M5.91264 17.9173L8.66065 16.7943C8.4185 16.0724 8.21153 15.3374 8.03974 14.5895C7.86868 13.8416 7.74391 13.0833 7.66541 12.3147L6.21033 13.2877C6.1111 13.3595 6.03631 13.4417 5.98595 13.5343C5.9356 13.6268 5.91079 13.7298 5.91153 13.8431L5.91264 17.9173ZM9.77806 16.6655H14.2211C14.5543 15.7687 14.8227 14.788 15.0264 13.7231C15.23 12.6583 15.3318 11.5494 15.3318 10.3964C15.3318 8.71991 15.0764 7.17633 14.5654 5.76568C14.0545 4.35502 13.1992 2.9925 11.9996 1.67811C10.8 2.99398 9.94468 4.35687 9.43373 5.76679C8.92278 7.1767 8.66731 8.72028 8.66731 10.3975C8.66731 11.5512 8.76913 12.6601 8.97277 13.7242C9.17641 14.7883 9.44484 15.7687 9.77806 16.6655ZM11.9996 10.5564C11.5308 10.5564 11.1361 10.3957 10.8155 10.0743C10.4941 9.75365 10.3334 9.35896 10.3334 8.89022C10.3334 8.42149 10.4941 8.0268 10.8155 7.70616C11.1369 7.38552 11.5316 7.22484 11.9996 7.2241C12.4676 7.22336 12.8623 7.38404 13.1836 7.70616C13.505 8.0268 13.6657 8.42149 13.6657 8.89022C13.6657 9.35896 13.505 9.75365 13.1836 10.0743C12.8623 10.3949 12.4676 10.5556 11.9996 10.5564ZM18.0865 17.9173V13.8653C18.0865 13.7512 18.0621 13.6446 18.0132 13.5454C17.9628 13.4454 17.8877 13.3595 17.7877 13.2877L16.3337 12.3147C16.2552 13.0833 16.1123 13.9164 15.905 14.8139C15.6976 15.7114 15.5088 16.3785 15.3385 16.8154L18.0865 17.9173ZM11.9996 0.211914C13.5331 1.57296 14.6569 3.10654 15.3707 4.81265C16.0853 6.51877 16.4426 8.41927 16.4426 10.5141C16.4426 10.5993 16.4463 10.6882 16.4537 10.7807C16.4611 10.8733 16.4574 10.9696 16.4426 11.0695L18.3697 12.368C18.6274 12.5287 18.83 12.7434 18.9773 13.0122C19.1247 13.281 19.1984 13.5654 19.1984 13.8653V19.549L14.7831 17.7762H9.19492L4.80078 19.549V13.8442C4.80078 13.545 4.87113 13.2607 5.01182 12.9911C5.15178 12.7223 5.3506 12.5076 5.6083 12.3469L7.55656 11.0473V10.5141C7.55656 8.41852 7.91385 6.51803 8.62844 4.81265C9.34228 3.10654 10.466 1.57296 11.9996 0.211914Z" fill="#CFEC57"/>
</g>
<defs>
<clipPath id="clip0_2088_23250">
<rect width="24" height="24" fill="white" transform="translate(0 0.211914)"/>
</clipPath>
</defs>
</svg>
