<svg width="24" height="25" viewBox="0 0 24 25" fill="none" xmlns="http://www.w3.org/2000/svg">
<g clip-path="url(#clip0_2088_23242)">
<path d="M19.1719 8.49854C19.1719 5.06321 19.1719 3.34644 18.1212 2.27873C17.0705 1.21102 15.3806 1.21191 12 1.21191H10.207C6.82639 1.21191 5.13562 1.21191 4.08584 2.27873C3.03605 3.34555 3.03516 5.06321 3.03516 8.49854C3.03516 11.9339 3.03516 13.6506 4.08584 14.7183C4.50718 15.146 5.03073 15.4024 5.72461 15.5557" stroke="#CFEC57" stroke-width="1.5" stroke-linecap="round" stroke-linejoin="round"/>
<path d="M20.9648 15.1074C20.9648 13.4265 20.9648 12.5865 20.5372 11.9966C20.399 11.8064 20.2317 11.6391 20.0415 11.5009C19.4516 11.0732 18.6116 11.0732 16.9307 11.0732H12.4482C10.7673 11.0732 9.92733 11.0732 9.33744 11.5009C9.14721 11.6391 8.97991 11.8064 8.84169 11.9966C8.41406 12.5874 8.41406 13.4274 8.41406 15.1074C8.41406 16.7874 8.41406 17.6283 8.84169 18.2182C8.98018 18.4085 9.14778 18.5758 9.33834 18.714C9.92733 19.1416 10.7673 19.1416 12.4482 19.1416H16.9307C18.6116 19.1416 19.4516 19.1416 20.0415 18.714C20.2317 18.5758 20.399 18.4085 20.5372 18.2182C20.9648 17.6283 20.9648 16.7883 20.9648 15.1074Z" stroke="#CFEC57" stroke-width="1.5" stroke-linecap="round" stroke-linejoin="round"/>
<path d="M16.0352 13.7627L16.8599 14.4736C17.2069 14.7721 17.3799 14.9218 17.3799 15.1074C17.3799 15.293 17.2069 15.4427 16.8599 15.7412L16.0352 16.4521M13.3457 13.7627L12.5209 14.4736C12.174 14.7721 12.001 14.9218 12.001 15.1074C12.001 15.293 12.174 15.4427 12.5209 15.7412L13.3457 16.4521M3.48438 4.79785H18.7246" stroke="#CFEC57" stroke-width="1.5" stroke-linecap="round" stroke-linejoin="round"/>
</g>
<defs>
<clipPath id="clip0_2088_23242">
<rect width="24" height="24" fill="white" transform="translate(0 0.211914)"/>
</clipPath>
</defs>
</svg>
