<svg width="68" height="68" viewBox="0 0 68 68" fill="none" xmlns="http://www.w3.org/2000/svg">
<path d="M62.2695 13.9122C60.9387 12.2016 58.9598 11.333 56.3992 11.333C52.0615 11.333 46.4622 14.2708 41.4179 19.1929C39.5575 20.9838 37.9005 22.9748 36.4773 25.1296V15.0518C36.4773 14.6291 36.3094 14.2237 36.0105 13.9248C35.7116 13.6259 35.3063 13.458 34.8836 13.458C34.4609 13.458 34.0555 13.6259 33.7566 13.9248C33.4577 14.2237 33.2898 14.6291 33.2898 15.0518V25.1296C31.8716 22.9756 30.22 20.9846 28.3651 19.1929C23.3262 14.2708 17.7242 11.333 13.3865 11.333C10.8126 11.333 8.83372 12.2016 7.50294 13.9122C6.03404 15.8008 5.45497 18.6111 5.73388 22.5025C5.9756 25.8839 6.82825 29.5496 7.54279 32.3652C9.21091 38.9368 13.0598 41.1308 15.9843 41.8427C15.2037 43.0836 14.6751 44.4662 14.4287 45.9114C14.1824 47.3566 14.2231 48.8362 14.5485 50.2657C14.874 51.6952 15.4778 53.0466 16.3256 54.2427C17.1733 55.4389 18.2483 56.4563 19.4893 57.237C20.7302 58.0177 22.1128 58.5463 23.558 58.7926C25.0032 59.039 26.4828 58.9983 27.9123 58.6728C29.3418 58.3473 30.6932 57.7435 31.8893 56.8958C33.0855 56.048 34.1029 54.973 34.8836 53.7321C36.4602 56.2386 38.968 58.0162 41.8552 58.6737C44.7424 59.3313 47.7726 58.815 50.2792 57.2383C52.7857 55.6617 54.5633 53.1539 55.2209 50.2667C55.8784 47.3794 55.3621 44.3492 53.7854 41.8427C56.7073 41.1441 60.5589 38.9368 62.227 32.3652C63.9828 25.4669 65.3561 17.8807 62.2695 13.9122ZM25.3211 55.958C23.2961 55.9291 21.3575 55.1333 19.8962 53.7312C18.4349 52.329 17.5597 50.4249 17.4471 48.4029C17.3346 46.3808 17.993 44.3914 19.2897 42.8357C20.5863 41.2801 22.4246 40.274 24.4339 40.0205C24.6432 39.9977 24.8459 39.9338 25.0305 39.8326C25.2152 39.7314 25.378 39.5948 25.5099 39.4307C25.6417 39.2665 25.7399 39.078 25.7989 38.8759C25.8579 38.6738 25.8765 38.4621 25.8536 38.2528C25.8308 38.0435 25.7669 37.8407 25.6657 37.6561C25.5645 37.4715 25.428 37.3086 25.2638 37.1768C25.0997 37.0449 24.9112 36.9467 24.7091 36.8877C24.5069 36.8288 24.2952 36.8102 24.0859 36.833C22.1336 37.0511 20.2745 37.7845 18.699 38.958C16.3084 39.0404 12.2922 38.1186 10.632 31.5843C9.76872 28.1816 7.47372 19.145 10.0184 15.8725C10.725 14.9614 11.8273 14.5205 13.3865 14.5205C16.8078 14.5205 21.8122 17.2511 26.1365 21.4746C30.5512 25.7804 33.2898 30.6147 33.2898 34.0891V47.9893C33.2898 50.1027 32.4503 52.1296 30.9558 53.624C29.4614 55.1184 27.4345 55.958 25.3211 55.958ZM59.1378 31.5816C57.4803 38.116 53.4773 39.035 51.0867 38.958C49.5119 37.7834 47.6524 37.0499 45.6998 36.833C45.4905 36.8093 45.2786 36.827 45.0762 36.8852C44.8737 36.9434 44.6847 37.0409 44.52 37.1721C44.3552 37.3033 44.2179 37.4657 44.1159 37.65C44.0139 37.8343 43.9492 38.0368 43.9254 38.2461C43.9017 38.4554 43.9195 38.6673 43.9776 38.8698C44.0358 39.0722 44.1333 39.2612 44.2645 39.426C44.3957 39.5908 44.5581 39.7281 44.7424 39.8301C44.9267 39.9321 45.1293 39.9968 45.3386 40.0205C46.8738 40.1872 48.328 40.7948 49.5255 41.7699C50.723 42.745 51.6125 44.046 52.0868 45.5157C52.561 46.9853 52.5996 48.5609 52.198 50.052C51.7963 51.5431 50.9715 52.8861 49.8233 53.9187C48.675 54.9513 47.2523 55.6294 45.7271 55.8711C44.2018 56.1129 42.6392 55.9078 41.2279 55.2808C39.8167 54.6538 38.6171 53.6316 37.7741 52.3377C36.9311 51.0438 36.4807 49.5335 36.4773 47.9893V34.0891C36.4773 30.6147 39.2186 25.7804 43.6306 21.4746C47.9603 17.2511 52.9647 14.5205 56.3992 14.5205C57.9584 14.5205 59.0554 14.9614 59.7673 15.8699C62.2987 19.1424 60.0037 28.1789 59.1404 31.5816H59.1378Z" fill="currentColor"/>
</svg>
