<svg viewBox="0 0 68 68" fill="none" xmlns="http://www.w3.org/2000/svg">
<path d="M50.1868 34.3661L49.4898 35.9697C49.3809 36.2309 49.1971 36.4539 48.9617 36.6108C48.7262 36.7677 48.4496 36.8515 48.1667 36.8515C47.8837 36.8515 47.6071 36.7677 47.3716 36.6108C47.1362 36.4539 46.9524 36.2309 46.8435 35.9697L46.1465 34.3661C44.921 31.5291 42.6768 29.2545 39.8565 27.9911L37.706 27.0306C37.4451 26.9105 37.2241 26.7182 37.0692 26.4764C36.9142 26.2346 36.8319 25.9535 36.8319 25.6663C36.8319 25.3791 36.9142 25.098 37.0692 24.8562C37.2241 24.6144 37.4451 24.4221 37.706 24.3021L39.7375 23.3982C42.6286 22.0988 44.9113 19.7401 46.1153 16.8079L46.8322 15.0767C46.9374 14.8086 47.1211 14.5783 47.3591 14.4161C47.5972 14.2538 47.8786 14.167 48.1667 14.167C48.4548 14.167 48.7362 14.2538 48.9742 14.4161C49.2122 14.5783 49.3959 14.8086 49.5012 15.0767L50.218 16.8051C51.4207 19.7378 53.7024 22.0975 56.593 23.3982L58.6273 24.3049C58.8874 24.4252 59.1077 24.6175 59.262 24.859C59.4164 25.1005 59.4984 25.3811 59.4984 25.6677C59.4984 25.9543 59.4164 26.2349 59.262 26.4764C59.1077 26.7179 58.8874 26.9102 58.6273 27.0306L56.474 27.9882C53.6543 29.2529 51.411 31.5285 50.1868 34.3661ZM8.01267 39.6701L20.0345 51.6919L16.0282 55.6982L0 39.6701L16.0282 23.6419L20.0317 27.6482L8.01267 39.6701ZM51.9718 55.6982L68 39.6701L59.9817 31.6574L55.9753 35.6637L59.9845 39.6701L47.9655 51.6919L51.9718 55.6982Z" fill="currentColor"/>
</svg>
