<svg width="68" height="68" viewBox="0 0 68 68" fill="none" xmlns="http://www.w3.org/2000/svg">
<path d="M5.66602 11.3337C5.66602 9.83077 6.26304 8.38943 7.32574 7.32672C8.38845 6.26401 9.82979 5.66699 11.3327 5.66699H56.666C58.1689 5.66699 59.6102 6.26401 60.673 7.32672C61.7357 8.38943 62.3327 9.83077 62.3327 11.3337V42.5003C62.3327 44.0032 61.7357 45.4446 60.673 46.5073C59.6102 47.57 58.1689 48.167 56.666 48.167H36.8327V53.8337H45.3327C46.0841 53.8337 46.8048 54.1322 47.3362 54.6635C47.8675 55.1949 48.166 55.9155 48.166 56.667C48.166 57.4184 47.8675 58.1391 47.3362 58.6705C46.8048 59.2018 46.0841 59.5003 45.3327 59.5003H22.666C21.9146 59.5003 21.1939 59.2018 20.6625 58.6705C20.1312 58.1391 19.8327 57.4184 19.8327 56.667C19.8327 55.9155 20.1312 55.1949 20.6625 54.6635C21.1939 54.1322 21.9146 53.8337 22.666 53.8337H31.166V48.167H11.3327C9.82979 48.167 8.38845 47.57 7.32574 46.5073C6.26304 45.4446 5.66602 44.0032 5.66602 42.5003V11.3337ZM56.666 42.5003V11.3337H11.3327V42.5003H56.666Z" fill="currentColor"/>
</svg>
