<svg viewBox="0 0 68 68" fill="none" xmlns="http://www.w3.org/2000/svg">
<path d="M12.75 10.625C12.75 10.0614 12.5261 9.52091 12.1276 9.1224C11.7291 8.72388 11.1886 8.5 10.625 8.5C10.0614 8.5 9.52091 8.72388 9.1224 9.1224C8.72388 9.52091 8.5 10.0614 8.5 10.625V48.875C8.5 51.6929 9.61942 54.3954 11.612 56.388C13.6046 58.3806 16.3071 59.5 19.125 59.5H57.375C57.9386 59.5 58.4791 59.2761 58.8776 58.8776C59.2761 58.4791 59.5 57.9386 59.5 57.375C59.5 56.8114 59.2761 56.2709 58.8776 55.8724C58.4791 55.4739 57.9386 55.25 57.375 55.25H19.125C17.4342 55.25 15.8127 54.5784 14.6172 53.3828C13.4216 52.1873 12.75 50.5658 12.75 48.875V10.625ZM42.5 19.125C42.5 19.6886 42.7239 20.2291 43.1224 20.6276C43.5209 21.0261 44.0614 21.25 44.625 21.25H52.2453L38.25 35.2453L31.2545 28.2455C31.0571 28.0476 30.8226 27.8906 30.5644 27.7835C30.3063 27.6763 30.0295 27.6212 29.75 27.6212C29.4705 27.6212 29.1937 27.6763 28.9356 27.7835C28.6774 27.8906 28.4429 28.0476 28.2455 28.2455L17.6205 38.8705C17.4229 39.0681 17.2662 39.3026 17.1593 39.5608C17.0523 39.8189 16.9973 40.0956 16.9973 40.375C16.9973 40.6544 17.0523 40.9311 17.1593 41.1892C17.2662 41.4474 17.4229 41.6819 17.6205 41.8795C17.8181 42.0771 18.0526 42.2338 18.3108 42.3407C18.5689 42.4477 18.8456 42.5027 19.125 42.5027C19.4044 42.5027 19.6811 42.4477 19.9392 42.3407C20.1974 42.2338 20.4319 42.0771 20.6295 41.8795L29.75 32.7547L36.7455 39.7545C36.9429 39.9524 37.1774 40.1094 37.4356 40.2165C37.6937 40.3237 37.9705 40.3788 38.25 40.3788C38.5295 40.3788 38.8063 40.3237 39.0644 40.2165C39.3226 40.1094 39.5571 39.9524 39.7545 39.7545L55.25 24.2547V32.2023C55.25 32.7658 55.4739 33.3063 55.8724 33.7049C56.2709 34.1034 56.8114 34.3272 57.375 34.3272C57.9386 34.3272 58.4791 34.1034 58.8776 33.7049C59.2761 33.3063 59.5 32.7658 59.5 32.2023V19.125C59.5 18.5614 59.2761 18.0209 58.8776 17.6224C58.4791 17.2239 57.9386 17 57.375 17H44.625C44.0614 17 43.5209 17.2239 43.1224 17.6224C42.7239 18.0209 42.5 18.5614 42.5 19.125Z" fill="currentColor"/>
</svg>
