<svg width="68" height="68" viewBox="0 0 68 68" fill="none" xmlns="http://www.w3.org/2000/svg">
<path d="M5.66699 33.5767C5.66699 21.7555 5.66699 15.845 9.81499 12.1712C13.9687 8.5 20.644 8.5 34.0003 8.5C47.3567 8.5 54.0348 8.5 58.1828 12.1712C62.3337 15.8475 62.3337 21.7555 62.3337 33.5767C62.3337 45.3978 62.3337 51.3084 58.1828 54.9796C54.0377 58.6533 47.3567 58.6533 34.0003 58.6533C20.644 58.6533 13.9658 58.6533 9.81499 54.9796C5.66699 51.3109 5.66699 45.3978 5.66699 33.5767Z" stroke="currentColor" stroke-width="4"/>
<path d="M17 43.1055L20.2385 46.1147L28.3333 38.5917M17 25.5519L20.2385 28.5611L28.3333 21.0381" stroke="currentColor" stroke-width="4" stroke-linecap="round" stroke-linejoin="round"/>
<path d="M36.834 26.0537H51.0007M36.834 43.6074H51.0007" stroke="currentColor" stroke-width="4" stroke-linecap="round"/>
</svg>
