<svg viewBox="0 0 68 68" fill="none" xmlns="http://www.w3.org/2000/svg">
<path fill-rule="evenodd" clip-rule="evenodd" d="M51.6612 6.33064C52.0863 5.90571 52.6627 5.66699 53.2637 5.66699C53.8648 5.66699 54.4412 5.90571 54.8663 6.33064L63.9329 15.3973C64.144 15.6079 64.3115 15.858 64.4258 16.1334C64.5401 16.4087 64.5989 16.704 64.5989 17.0021C64.5989 17.3003 64.5401 17.5955 64.4258 17.8708C64.3115 18.1462 64.144 18.3964 63.9329 18.6069L46.0625 36.4773C45.7181 36.823 45.3201 37.1108 44.8839 37.3296L27.0815 46.2285C26.6563 46.4407 26.1752 46.514 25.7062 46.4379C25.2371 46.3618 24.8039 46.1402 24.4676 45.8044C24.1313 45.4687 23.9091 45.0357 23.8323 44.5668C23.7555 44.0979 23.828 43.6166 24.0396 43.1912L32.9385 25.3842C33.1573 24.948 33.4451 24.55 33.7908 24.2056L51.6612 6.33064ZM53.266 11.1405L36.9913 27.4152L32.2903 36.8264L33.4417 37.9778L42.8575 33.2722L59.1276 17.0021L53.266 11.1405ZM41.9327 10.2021L37.3993 14.7354H18.8127C16.8724 14.7354 15.5487 14.7354 14.5332 14.8216C13.5359 14.9032 13.0281 15.0482 12.6745 15.2296C11.8216 15.6642 11.1281 16.3577 10.6935 17.2106C10.5121 17.5642 10.3671 18.072 10.2855 19.0693C10.1993 20.0848 10.1993 21.4085 10.1993 23.3488V51.4554C10.1993 53.3957 10.1993 54.7194 10.2855 55.7349C10.3671 56.7322 10.5121 57.24 10.6935 57.5936C11.1281 58.4465 11.8216 59.14 12.6745 59.5746C13.0281 59.756 13.5359 59.901 14.5332 59.9826C15.5532 60.0688 16.8724 60.0688 18.8127 60.0688H46.9193C48.8596 60.0688 50.1833 60.0688 51.1988 59.9826C52.1961 59.901 52.7039 59.756 53.0575 59.5746C53.9104 59.14 54.6039 58.4465 55.0385 57.5936C55.2199 57.24 55.3649 56.7322 55.4465 55.7349C55.5327 54.7149 55.5327 53.3957 55.5327 51.4554V32.8688L60.066 28.3354V51.5461C60.066 53.373 60.066 54.8781 59.9663 56.1066C59.862 57.3805 59.6399 58.5546 59.0777 59.6517C58.2085 61.3576 56.8215 62.7446 55.1156 63.6138C54.014 64.176 52.8444 64.3981 51.5705 64.5024C50.3465 64.6021 48.8369 64.6021 47.0145 64.6021H18.722C16.8951 64.6021 15.39 64.6021 14.1615 64.5024C12.8876 64.3981 11.7135 64.176 10.6164 63.6138C8.91049 62.7446 7.52352 61.3576 6.65428 59.6517C6.09215 58.5501 5.87002 57.3805 5.76575 56.1066C5.66602 54.8826 5.66602 53.373 5.66602 51.5461V23.2581C5.66602 21.4312 5.66602 19.9261 5.76575 18.6976C5.87002 17.4237 6.09215 16.2496 6.65428 15.1525C7.52352 13.4466 8.91049 12.0596 10.6164 11.1904C11.718 10.6282 12.8876 10.4061 14.1615 10.3018C15.3855 10.2021 16.8951 10.2021 18.722 10.2021H41.9327Z" fill="currentColor"/>
</svg>
