<svg width="24" height="24" viewBox="0 0 24 24" fill="none" xmlns="http://www.w3.org/2000/svg">
<path d="M17 20C17.8284 20 18.5 19.3284 18.5 18.5C18.5 17.6716 17.8284 17 17 17C16.1716 17 15.5 17.6716 15.5 18.5C15.5 19.3284 16.1716 20 17 20Z" fill="#CFEC57"/>
<path d="M22.8328 18.1093C22.3693 16.9287 21.5697 15.91 20.5329 15.1796C19.4961 14.4491 18.2677 14.039 17 14C15.7323 14.039 14.5039 14.4491 13.4671 15.1796C12.4303 15.91 11.6307 16.9287 11.1672 18.1093L11 18.5L11.1672 18.8915C11.6308 20.0719 12.4305 21.0904 13.4673 21.8207C14.5041 22.551 15.7324 22.9611 17 23C18.2676 22.9611 19.4959 22.551 20.5327 21.8207C21.5695 21.0904 22.3692 20.0719 22.8328 18.8915L23 18.5L22.8328 18.1093ZM17 21.5C16.4067 21.5 15.8266 21.3241 15.3333 20.9944C14.8399 20.6648 14.4554 20.1962 14.2284 19.648C14.0013 19.0999 13.9419 18.4967 14.0576 17.9147C14.1734 17.3328 14.4591 16.7982 14.8787 16.3787C15.2982 15.9591 15.8328 15.6734 16.4147 15.5576C16.9967 15.4419 17.5999 15.5013 18.148 15.7284C18.6962 15.9554 19.1648 16.3399 19.4944 16.8333C19.8241 17.3266 20 17.9067 20 18.5C19.999 19.2953 19.6826 20.0578 19.1202 20.6202C18.5578 21.1826 17.7953 21.499 17 21.5ZM5.75 13.25H9.5V14.75H5.75V13.25ZM5.75 9.5H14.75V11H5.75V9.5ZM5.75 5.75H14.75V7.25H5.75V5.75Z" fill="#CFEC57"/>
<path d="M17 2H3.5C3.10254 2.00119 2.7217 2.1596 2.44065 2.44065C2.1596 2.7217 2.00119 3.10254 2 3.5V21.5C2.00119 21.8975 2.1596 22.2783 2.44065 22.5593C2.7217 22.8404 3.10254 22.9988 3.5 23H9.5V21.5H3.5V3.5H17V11.75H18.5V3.5C18.4988 3.10254 18.3404 2.7217 18.0593 2.44065C17.7783 2.1596 17.3975 2.00119 17 2Z" fill="#CFEC57"/>
</svg>
