<svg width="24" height="24" viewBox="0 0 24 24" fill="none" xmlns="http://www.w3.org/2000/svg">
<g clip-path="url(#clip0_1_14)">
<path d="M16.6667 2.78809H7.33333C6.97971 2.78809 6.64057 2.92856 6.39052 3.17861C6.14048 3.42866 6 3.7678 6 4.12142V20.1214C6 20.475 6.14048 20.8142 6.39052 21.0642C6.64057 21.3143 6.97971 21.4548 7.33333 21.4548H16.6667C17.0203 21.4548 17.3594 21.3143 17.6095 21.0642C17.8595 20.8142 18 20.475 18 20.1214V4.12142C18 3.7678 17.8595 3.42866 17.6095 3.17861C17.3594 2.92856 17.0203 2.78809 16.6667 2.78809ZM7.33333 4.12142H16.6667V16.1214H7.33333V4.12142ZM7.33333 20.1214V17.4548H16.6667V20.1214H7.33333Z" fill="#CFEC57"/>
<path d="M11.3333 18H12.6667V19.3333H11.3333V18Z" fill="#CFEC57"/>
</g>
<defs>
<clipPath id="clip0_1_14">
<rect width="24" height="24" fill="white"/>
</clipPath>
</defs>
</svg>
