<svg width="24" height="24" viewBox="0 0 24 24" fill="none" xmlns="http://www.w3.org/2000/svg">
<path d="M19.1389 15.5853V14.4748C19.0811 13.9656 18.8378 13.4954 18.4555 13.1541C18.0731 12.8127 17.5785 12.624 17.066 12.624C16.5535 12.624 16.0589 12.8127 15.6766 13.1541C15.2942 13.4954 15.051 13.9656 14.9931 14.4748V15.5853C14.7626 15.6009 14.5456 15.6995 14.3823 15.8628C14.2189 16.0262 14.1203 16.2432 14.1047 16.4737V19.0648C14.1057 19.3072 14.1975 19.5405 14.3619 19.7186C14.5264 19.8968 14.7515 20.0069 14.9931 20.0272H19.0649C19.3073 20.0262 19.5406 19.9345 19.7187 19.77C19.8968 19.6056 20.0069 19.3804 20.0273 19.1388V16.5477C20.0263 16.3053 19.9345 16.072 19.7701 15.8939C19.6057 15.7157 19.3805 15.6057 19.1389 15.5853ZM15.9555 14.4748C15.9624 14.3377 15.997 14.2034 16.0571 14.08C16.1173 13.9566 16.2018 13.8467 16.3055 13.7568C16.4092 13.6669 16.5301 13.5989 16.6608 13.5569C16.7915 13.5149 16.9293 13.4998 17.066 13.5124C17.2027 13.4998 17.3405 13.5149 17.4712 13.5569C17.6019 13.5989 17.7228 13.6669 17.8265 13.7568C17.9303 13.8467 18.0147 13.9566 18.0749 14.08C18.135 14.2034 18.1696 14.3377 18.1765 14.4748V15.5853H15.9555V14.4748Z" fill="#CFEC57"/>
<path d="M20.7677 11.1435V4.48064C20.7677 4.08795 20.6117 3.71134 20.334 3.43367C20.0563 3.156 19.6797 3 19.287 3H4.48064C4.08795 3 3.71134 3.156 3.43367 3.43367C3.156 3.71134 3 4.08795 3 4.48064L3 17.8064C3 18.1991 3.156 18.5757 3.43367 18.8534C3.71134 19.131 4.08795 19.287 4.48064 19.287H12.6242V17.8064H4.48064V4.48064H19.287V11.1435" fill="#CFEC57"/>
<path d="M7.44182 5.96094H5.96118V7.44158H7.44182V5.96094ZM17.8063 5.96094H8.92246V7.44158H17.8063V5.96094ZM12.6241 14.8448H8.92246V16.3254H12.6241V14.8448ZM7.44182 14.8448H5.96118V16.3254H7.44182V14.8448ZM10.4031 8.92221H8.92246V10.4029H10.4031V8.92221ZM17.8063 8.92221H11.8837V10.4029H17.8063V8.92221ZM13.9626 11.8835H11.8837V13.3641H13.5124V12.994C13.5202 12.5809 13.6806 12.1854 13.9626 11.8835ZM10.4031 11.8835H8.92246V13.3641H10.4031V11.8835Z" fill="#CFEC57"/>
</svg>
