<svg width="24" height="24" viewBox="0 0 24 24" fill="none" xmlns="http://www.w3.org/2000/svg">
<path d="M8.668 17H4C3.80109 17 3.61032 16.921 3.46967 16.7803C3.32902 16.6397 3.25 16.4489 3.25 16.25V3.5H1.75C1.55109 3.5 1.36032 3.42098 1.21967 3.28033C1.07902 3.13968 1 2.94891 1 2.75C1 2.55109 1.07902 2.36032 1.21967 2.21967C1.36032 2.07902 1.55109 2 1.75 2H22.75C22.9489 2 23.1397 2.07902 23.2803 2.21967C23.421 2.36032 23.5 2.55109 23.5 2.75C23.5 2.94891 23.421 3.13968 23.2803 3.28033C23.1397 3.42098 22.9489 3.5 22.75 3.5H21.25V16.25C21.25 16.4489 21.171 16.6397 21.0303 16.7803C20.8897 16.921 20.6989 17 20.5 17H15.841L18.439 21.5H16.708L14.11 17H10.399L7.801 21.5H6.07L8.668 17ZM19.75 3.5H4.75V15.5H19.75V3.5ZM8.281 11.531C8.21127 11.6007 8.12848 11.656 8.03738 11.6938C7.94627 11.7315 7.84862 11.7509 7.75 11.7509C7.65138 11.7509 7.55373 11.7315 7.46262 11.6938C7.37152 11.656 7.28873 11.6007 7.219 11.531C7.14927 11.4613 7.09395 11.3785 7.05621 11.2874C7.01848 11.1963 6.99905 11.0986 6.99905 11C6.99905 10.9014 7.01848 10.8037 7.05621 10.7126C7.09395 10.6215 7.14927 10.5387 7.219 10.469L10.6795 7.01L13.6195 9.215L16.165 6.032C16.2246 5.94986 16.3002 5.88067 16.3873 5.82861C16.4744 5.77655 16.5712 5.74271 16.6717 5.72913C16.7723 5.71555 16.8745 5.72251 16.9723 5.7496C17.0701 5.77669 17.1614 5.82334 17.2406 5.88673C17.3199 5.95012 17.3854 6.02892 17.4333 6.11838C17.4812 6.20783 17.5104 6.30608 17.5193 6.40716C17.5281 6.50825 17.5163 6.61007 17.4846 6.70647C17.453 6.80287 17.4021 6.89184 17.335 6.968L13.882 11.2865L10.8205 8.99L8.281 11.5295V11.531Z" fill="#CFEC57"/>
</svg>
