<svg width="24" height="24" viewBox="0 0 24 24" fill="none" xmlns="http://www.w3.org/2000/svg">
<path d="M6.956 3.74017C7.77395 3.11959 8.77328 2.78522 9.8 2.78857C10.1545 2.78096 10.5052 2.86271 10.8198 3.02628C11.1343 3.18986 11.4027 3.43001 11.6 3.72457C11.7973 3.43001 12.0657 3.18986 12.3802 3.02628C12.6948 2.86271 13.0455 2.78096 13.4 2.78857C14.4267 2.78522 15.426 3.11959 16.244 3.74017C16.874 4.22977 17.36 4.90777 17.5316 5.72737C17.9252 5.75737 18.2852 5.92057 18.5876 6.16657C19.046 6.53857 19.3796 7.09657 19.5896 7.68697C19.9184 8.60497 20.0072 9.77497 19.6664 10.771C19.7528 10.8118 19.8376 10.8598 19.9208 10.915C20.2508 11.1346 20.5016 11.449 20.6864 11.8198C21.05 12.5458 21.2 13.5586 21.2 14.7886C21.2 16.1578 20.678 17.077 20.0156 17.6446C19.6488 17.958 19.2167 18.1855 18.7508 18.3106C18.6308 18.9802 18.2948 19.7554 17.768 20.413C17.084 21.271 16.0232 21.9886 14.6 21.9886C13.472 21.9886 12.5744 21.3646 11.9912 20.7526C11.8512 20.607 11.7205 20.4527 11.6 20.2906C11.4795 20.4527 11.3488 20.607 11.2088 20.7526C10.6256 21.3646 9.7292 21.9886 8.6 21.9886C7.1768 21.9886 6.1172 21.271 5.432 20.413C4.93983 19.8016 4.60267 19.0803 4.4492 18.3106C3.98328 18.1855 3.55116 17.958 3.1844 17.6446C2.522 17.077 2 16.1566 2 14.7886C2 13.5586 2.1512 12.5446 2.5136 11.8198C2.6844 11.4555 2.94854 11.1429 3.2792 10.9138C3.36106 10.8615 3.44601 10.8142 3.5336 10.7722C3.1928 9.77377 3.2816 8.60497 3.6104 7.68697C3.8204 7.09657 4.154 6.53857 4.6124 6.16657C4.9148 5.92057 5.2748 5.75857 5.6684 5.72737C5.8412 4.90777 6.326 4.22977 6.956 3.74017ZM11 5.78857V5.77657L10.9976 5.71657C10.9807 5.40364 10.9184 5.09483 10.8128 4.79977C10.7391 4.57643 10.6118 4.37455 10.442 4.21177C10.2648 4.05743 10.0348 3.97747 9.8 3.98857C9.04019 3.98509 8.30012 4.23038 7.6928 4.68697C7.136 5.12017 6.8 5.70697 6.8 6.38857C6.79993 6.48359 6.77729 6.57724 6.73395 6.6618C6.69061 6.74636 6.6278 6.81941 6.5507 6.87495C6.4736 6.93049 6.38441 6.96693 6.29048 6.98126C6.19655 6.99559 6.10055 6.9874 6.0104 6.95737C5.7848 6.88297 5.5832 6.92497 5.3684 7.09777C5.1332 7.28977 4.904 7.63057 4.7396 8.09017C4.4048 9.02857 4.4396 10.165 4.8992 10.8562C4.96484 10.9546 4.99991 11.0703 5 11.1886H5.9C6.61608 11.1886 7.30284 11.473 7.80919 11.9794C8.31554 12.4857 8.6 13.1725 8.6 13.8886V14.2906C9.00033 14.4321 9.33773 14.7106 9.55258 15.0769C9.76743 15.4431 9.84588 15.8735 9.77408 16.292C9.70227 16.7105 9.48484 17.0902 9.1602 17.3638C8.83555 17.6375 8.42461 17.7876 8 17.7876C7.57539 17.7876 7.16445 17.6375 6.8398 17.3638C6.51516 17.0902 6.29773 16.7105 6.22592 16.292C6.15412 15.8735 6.23258 15.4431 6.44742 15.0769C6.66227 14.7106 6.99967 14.4321 7.4 14.2906V13.8886C7.4 13.0606 6.728 12.3886 5.9 12.3886H3.8C3.72827 12.3884 3.65714 12.3754 3.59 12.3502L3.5864 12.3574C3.3488 12.8314 3.2 13.6186 3.2 14.7886C3.2 15.8194 3.578 16.4002 3.9656 16.7326C4.382 17.0902 4.844 17.1886 5 17.1886C5.15913 17.1886 5.31174 17.2518 5.42426 17.3643C5.53679 17.4768 5.6 17.6294 5.6 17.7886C5.6 18.2302 5.84 19.0018 6.368 19.6642C6.8828 20.3062 7.6232 20.7886 8.6 20.7886C9.272 20.7886 9.8744 20.413 10.34 19.9246C10.5692 19.6846 10.748 19.4362 10.8644 19.2322C10.9173 19.1416 10.9626 19.0469 11 18.949V9.38857H9.698C9.55646 9.7889 9.27796 10.1263 8.91171 10.3412C8.54547 10.556 8.11506 10.6345 7.69656 10.5627C7.27806 10.4908 6.89842 10.2734 6.62474 9.94877C6.35105 9.62413 6.20094 9.21319 6.20094 8.78857C6.20094 8.36396 6.35105 7.95302 6.62474 7.62838C6.89842 7.30374 7.27806 7.0863 7.69656 7.0145C8.11506 6.94269 8.54547 7.02115 8.91171 7.23599C9.27796 7.45084 9.55646 7.78825 9.698 8.18857H11V5.78857ZM12.2 17.7874V18.9478L12.2144 18.9874C12.2368 19.0474 12.2768 19.1286 12.3344 19.231C12.4532 19.435 12.6308 19.6834 12.8588 19.9234C13.3256 20.4118 13.9292 20.7874 14.6 20.7874C15.5768 20.7874 16.3172 20.305 16.832 19.663C17.36 19.0006 17.6 18.229 17.6 17.7874C17.6 17.6282 17.6632 17.4756 17.7757 17.3631C17.8883 17.2506 18.0409 17.1874 18.2 17.1874C18.356 17.1874 18.818 17.089 19.2344 16.7314C19.622 16.399 20 15.8182 20 14.7874C20 13.6174 19.85 12.8314 19.6136 12.3562C19.5357 12.1785 19.4113 12.0252 19.2536 11.9122C19.1184 11.826 18.9602 11.7829 18.8 11.7886C18.6915 11.7885 18.585 11.759 18.4919 11.7032C18.3988 11.6474 18.3226 11.5675 18.2714 11.4718C18.2201 11.3761 18.1958 11.2683 18.201 11.1599C18.2062 11.0515 18.2407 10.9465 18.3008 10.8562C18.7616 10.165 18.7952 9.02857 18.4604 8.09017C18.296 7.63057 18.0668 7.28857 17.8316 7.09777C17.6168 6.92497 17.4152 6.88177 17.1896 6.95737C17.0994 6.9874 17.0035 6.99559 16.9095 6.98126C16.8156 6.96693 16.7264 6.93049 16.6493 6.87495C16.5722 6.81941 16.5094 6.74636 16.4661 6.6618C16.4227 6.57724 16.4001 6.48359 16.4 6.38857C16.4 5.70697 16.064 5.12017 15.506 4.68697C14.899 4.23062 14.1594 3.98535 13.4 3.98857C13.1652 3.97747 12.9352 4.05743 12.758 4.21177C12.5878 4.37442 12.4601 4.57631 12.386 4.79977C12.2722 5.11334 12.2094 5.44312 12.2 5.77657V16.5886H13.1C13.928 16.5886 14.6 15.9166 14.6 15.0886V12.8866C14.1997 12.745 13.8623 12.4665 13.6474 12.1003C13.4326 11.734 13.3541 11.3036 13.4259 10.8851C13.4977 10.4666 13.7152 10.087 14.0398 9.81331C14.3644 9.53963 14.7754 9.38952 15.2 9.38952C15.6246 9.38952 16.0356 9.53963 16.3602 9.81331C16.6848 10.087 16.9023 10.4666 16.9741 10.8851C17.0459 11.3036 16.9674 11.734 16.7526 12.1003C16.5377 12.4665 16.2003 12.745 15.8 12.8866V15.0886C15.8 15.8047 15.5155 16.4914 15.0092 16.9978C14.5028 17.5041 13.8161 17.7886 13.1 17.7886L12.2 17.7874ZM7.4 8.78857C7.4 8.9477 7.46321 9.10032 7.57574 9.21284C7.68826 9.32536 7.84087 9.38857 8 9.38857C8.15913 9.38857 8.31174 9.32536 8.42426 9.21284C8.53679 9.10032 8.6 8.9477 8.6 8.78857C8.6 8.62944 8.53679 8.47683 8.42426 8.36431C8.31174 8.25179 8.15913 8.18857 8 8.18857C7.84087 8.18857 7.68826 8.25179 7.57574 8.36431C7.46321 8.47683 7.4 8.62944 7.4 8.78857ZM15.2 11.7886C15.3591 11.7886 15.5117 11.7254 15.6243 11.6128C15.7368 11.5003 15.8 11.3477 15.8 11.1886C15.8 11.0294 15.7368 10.8768 15.6243 10.7643C15.5117 10.6518 15.3591 10.5886 15.2 10.5886C15.0409 10.5886 14.8883 10.6518 14.7757 10.7643C14.6632 10.8768 14.6 11.0294 14.6 11.1886C14.6 11.3477 14.6632 11.5003 14.7757 11.6128C14.8883 11.7254 15.0409 11.7886 15.2 11.7886ZM8 15.3886C7.84087 15.3886 7.68826 15.4518 7.57574 15.5643C7.46321 15.6768 7.4 15.8294 7.4 15.9886C7.4 16.1477 7.46321 16.3003 7.57574 16.4128C7.68826 16.5254 7.84087 16.5886 8 16.5886C8.15913 16.5886 8.31174 16.5254 8.42426 16.4128C8.53679 16.3003 8.6 16.1477 8.6 15.9886C8.6 15.8294 8.53679 15.6768 8.42426 15.5643C8.31174 15.4518 8.15913 15.3886 8 15.3886Z" fill="#CFEC57"/>
</svg>
