<svg width="24" height="24" viewBox="0 0 24 24" fill="none" xmlns="http://www.w3.org/2000/svg">
<path d="M4.5 3.53809C4.5 3.33917 4.42098 3.14841 4.28033 3.00776C4.13968 2.8671 3.94891 2.78809 3.75 2.78809C3.55109 2.78809 3.36032 2.8671 3.21967 3.00776C3.07902 3.14841 3 3.33917 3 3.53809V17.0381C3 18.0326 3.39509 18.9865 4.09835 19.6897C4.80161 20.393 5.75544 20.7881 6.75 20.7881H20.25C20.4489 20.7881 20.6397 20.7091 20.7803 20.5684C20.921 20.4278 21 20.237 21 20.0381C21 19.8392 20.921 19.6484 20.7803 19.5078C20.6397 19.3671 20.4489 19.2881 20.25 19.2881H6.75C6.15326 19.2881 5.58097 19.051 5.15901 18.6291C4.73705 18.2071 4.5 17.6348 4.5 17.0381V3.53809ZM15 6.53809C15 6.737 15.079 6.92776 15.2197 7.06842C15.3603 7.20907 15.5511 7.28809 15.75 7.28809H18.4395L13.5 12.2276L11.031 9.75709C10.9613 9.68724 10.8786 9.63183 10.7875 9.59402C10.6963 9.55621 10.5987 9.53675 10.5 9.53675C10.4013 9.53675 10.3037 9.55621 10.2125 9.59402C10.1214 9.63183 10.0387 9.68724 9.969 9.75709L6.219 13.5071C6.14927 13.5768 6.09395 13.6596 6.05621 13.7507C6.01848 13.8418 5.99905 13.9395 5.99905 14.0381C5.99905 14.1367 6.01848 14.2344 6.05621 14.3255C6.09395 14.4166 6.14927 14.4994 6.219 14.5691C6.28873 14.6388 6.37152 14.6941 6.46262 14.7319C6.55373 14.7696 6.65138 14.789 6.75 14.789C6.84862 14.789 6.94627 14.7696 7.03738 14.7319C7.12848 14.6941 7.21127 14.6388 7.281 14.5691L10.5 11.3486L12.969 13.8191C13.0387 13.8889 13.1214 13.9443 13.2126 13.9822C13.3037 14.02 13.4013 14.0394 13.5 14.0394C13.5987 14.0394 13.6963 14.02 13.7874 13.9822C13.8786 13.9443 13.9613 13.8889 14.031 13.8191L19.5 8.34859V11.1536C19.5 11.3525 19.579 11.5433 19.7197 11.6839C19.8603 11.8246 20.0511 11.9036 20.25 11.9036C20.4489 11.9036 20.6397 11.8246 20.7803 11.6839C20.921 11.5433 21 11.3525 21 11.1536V6.53809C21 6.33917 20.921 6.14841 20.7803 6.00776C20.6397 5.8671 20.4489 5.78809 20.25 5.78809H15.75C15.5511 5.78809 15.3603 5.8671 15.2197 6.00776C15.079 6.14841 15 6.33917 15 6.53809Z" fill="#CFEC57"/>
</svg>
