<svg width="24" height="24" viewBox="0 0 24 24" fill="none" xmlns="http://www.w3.org/2000/svg">
<path d="M5.14302 13.7881C4.39267 12.5593 3.99707 11.1468 4.00002 9.70709C4.00002 5.33309 7.58202 1.78809 12 1.78809C16.418 1.78809 20 5.33309 20 9.70709C20.003 11.1468 19.6074 12.5593 18.857 13.7881" stroke="#CFEC57" stroke-width="1.5" stroke-linecap="round" stroke-linejoin="round"/>
<path d="M14 9.78809C13.387 10.4311 12.711 10.7881 12 10.7881M12 10.7881C11.289 10.7881 10.613 10.4311 10 9.78809M12 10.7881V15.2881M15 18.7881L14.87 19.4351C14.73 20.1421 14.659 20.4951 14.5 20.7751C14.255 21.2066 13.8583 21.5317 13.387 21.6871C13.082 21.7881 12.72 21.7881 12 21.7881C11.28 21.7881 10.918 21.7881 10.613 21.6881C10.1415 21.5324 9.74482 21.207 9.5 20.7751C9.341 20.4951 9.27 20.1421 9.13 19.4351L9 18.7881M7.383 16.8861C7.291 16.6101 7.245 16.4711 7.25 16.3591C7.25566 16.2433 7.29475 16.1316 7.36254 16.0375C7.43033 15.9435 7.52393 15.8711 7.632 15.8291C7.736 15.7881 7.882 15.7881 8.172 15.7881H15.828C16.119 15.7881 16.264 15.7881 16.368 15.8281C16.4762 15.8701 16.5699 15.9427 16.6377 16.037C16.7055 16.1312 16.7445 16.2431 16.75 16.3591C16.755 16.4711 16.709 16.6091 16.617 16.8861C16.447 17.3971 16.362 17.6531 16.231 17.8601C15.957 18.2927 15.5275 18.6037 15.031 18.7291C14.793 18.7881 14.525 18.7881 13.988 18.7881H10.012C9.475 18.7881 9.206 18.7881 8.969 18.7281C8.47267 18.603 8.04319 18.2923 7.769 17.8601C7.638 17.6531 7.553 17.3971 7.383 16.8861Z" stroke="#CFEC57" stroke-width="1.5" stroke-linecap="round" stroke-linejoin="round"/>
</svg>
