<svg width="24" height="24" viewBox="0 0 24 24" fill="none" xmlns="http://www.w3.org/2000/svg">
<path d="M19.1367 10.0747C19.1367 6.63938 19.1367 4.92262 18.086 3.8549C17.0354 2.78719 15.3455 2.78809 11.9648 2.78809H10.1719C6.79123 2.78809 5.10046 2.78809 4.05068 3.8549C3.0009 4.92172 3 6.63938 3 10.0747C3 13.51 3 15.2268 4.05068 16.2945C4.47203 16.7221 4.99557 16.9785 5.68945 17.1318" stroke="#CFEC57" stroke-width="1.5" stroke-linecap="round" stroke-linejoin="round"/>
<path d="M20.9297 16.6836C20.9297 15.0027 20.9297 14.1627 20.5021 13.5728C20.3638 13.3826 20.1965 13.2153 20.0063 13.077C19.4164 12.6494 18.5764 12.6494 16.8955 12.6494H12.4131C10.7322 12.6494 9.89217 12.6494 9.30228 13.077C9.11205 13.2153 8.94475 13.3826 8.80653 13.5728C8.37891 14.1636 8.37891 15.0036 8.37891 16.6836C8.37891 18.3636 8.37891 19.2045 8.80653 19.7944C8.94502 19.9847 9.11263 20.152 9.30318 20.2902C9.89217 20.7178 10.7322 20.7178 12.4131 20.7178H16.8955C18.5764 20.7178 19.4164 20.7178 20.0063 20.2902C20.1965 20.1519 20.3638 19.9846 20.5021 19.7944C20.9297 19.2045 20.9297 18.3645 20.9297 16.6836Z" stroke="#CFEC57" stroke-width="1.5" stroke-linecap="round" stroke-linejoin="round"/>
<path d="M15.999 15.3389L16.8238 16.0498C17.1707 16.3483 17.3438 16.498 17.3438 16.6836C17.3438 16.8692 17.1707 17.0189 16.8238 17.3174L15.999 18.0283M13.3096 15.3389L12.4848 16.0498C12.1379 16.3483 11.9648 16.498 11.9648 16.6836C11.9648 16.8692 12.1379 17.0189 12.4848 17.3174L13.3096 18.0283M3.44824 6.37402H18.6885" stroke="#CFEC57" stroke-width="1.5" stroke-linecap="round" stroke-linejoin="round"/>
</svg>
