<svg width="24" height="24" viewBox="0 0 24 24" fill="none" xmlns="http://www.w3.org/2000/svg">
<path d="M11.9987 4.28859C11.9987 3.62555 11.7353 2.98966 11.2664 2.52082C10.7976 2.05198 10.1617 1.78859 9.49867 1.78859C8.83563 1.78859 8.19974 2.05198 7.7309 2.52082C7.26206 2.98966 6.99867 3.62555 6.99867 4.28859C6.46667 4.28844 5.94419 4.42976 5.4848 4.69807C5.02542 4.96637 4.64564 5.35202 4.3844 5.81546C4.12317 6.27891 3.98987 6.80349 3.99818 7.33543C4.00648 7.86736 4.15609 8.38752 4.43167 8.84259C3.74721 8.97484 3.13014 9.34126 2.68642 9.87893C2.2427 10.4166 2 11.092 2 11.7891C2 12.4862 2.2427 13.1616 2.68642 13.6993C3.13014 14.2369 3.74721 14.6033 4.43167 14.7356C4.15635 15.1906 4.00694 15.7107 3.99877 16.2425C3.99059 16.7743 4.12394 17.2987 4.38515 17.762C4.64635 18.2253 5.02603 18.6108 5.48527 18.879C5.94451 19.1473 6.46682 19.2886 6.99867 19.2886C6.9988 19.9516 7.26232 20.5875 7.73125 21.0562C8.20019 21.525 8.83613 21.7882 9.49917 21.7881C10.1622 21.788 10.798 21.5244 11.2668 21.0555C11.7355 20.5866 11.9988 19.9506 11.9987 19.2876" stroke="#CFEC57" stroke-width="1.5" stroke-linecap="round" stroke-linejoin="round"/>
<path d="M11.9987 19.2886C11.9987 19.9516 12.262 20.5875 12.7309 21.0564C13.1997 21.5252 13.8356 21.7886 14.4987 21.7886C15.1617 21.7886 15.7976 21.5252 16.2664 21.0564C16.7353 20.5875 16.9987 19.9516 16.9987 19.2886C17.5305 19.2886 18.0528 19.1473 18.5121 18.879C18.9713 18.6108 19.351 18.2252 19.6122 17.762C19.8734 17.2987 20.0067 16.7743 19.9986 16.2425C19.9904 15.7107 19.841 15.1906 19.5657 14.7356C20.2501 14.6033 20.8672 14.2369 21.3109 13.6992C21.7546 13.1616 21.9973 12.4862 21.9973 11.7891C21.9973 11.092 21.7546 10.4166 21.3109 9.87892C20.8672 9.34126 20.2501 8.97484 19.5657 8.84259C19.8412 8.38752 19.9908 7.86736 19.9991 7.33542C20.0075 6.80348 19.8742 6.27891 19.6129 5.81546C19.3517 5.35201 18.9719 4.96637 18.5125 4.69806C18.0531 4.42975 17.5307 4.28843 16.9987 4.28859C16.9987 3.96028 16.9341 3.63518 16.8085 3.33184C16.683 3.0285 16.4989 2.75287 16.2668 2.52067C16.0347 2.28848 15.7591 2.10428 15.4558 1.97858C15.1525 1.85288 14.8275 1.78815 14.4992 1.78809C13.8361 1.78795 13.2002 2.05122 12.7312 2.51997C12.2623 2.98871 11.9988 3.62454 11.9987 4.28759" stroke="#CFEC57" stroke-width="1.5" stroke-linecap="round" stroke-linejoin="round"/>
<path d="M10.4857 6.78959V8.76859M6.99866 10.2896H9.05066M15.0217 10.2896H17.0737M15.0217 13.2636H17.0737M6.99866 13.2636H9.05066M10.4857 14.8086V16.7886M13.5107 14.8086V16.7886M13.5017 6.78859V8.76859M10.0517 14.7576H14.0227C14.2879 14.7576 14.5422 14.6522 14.7298 14.4647C14.9173 14.2772 15.0227 14.0228 15.0227 13.7576V9.76859C15.0227 9.50337 14.9173 9.24902 14.7298 9.06148C14.5422 8.87395 14.2879 8.76859 14.0227 8.76859H10.0517C9.78644 8.76859 9.53209 8.87395 9.34455 9.06148C9.15701 9.24902 9.05166 9.50337 9.05166 9.76859V13.7576C9.05166 14.0228 9.15701 14.2772 9.34455 14.4647C9.53209 14.6522 9.78644 14.7576 10.0517 14.7576Z" stroke="#CFEC57" stroke-width="1.5" stroke-linecap="round" stroke-linejoin="round"/>
</svg>
