<svg width="24" height="24" viewBox="0 0 24 24" fill="none" xmlns="http://www.w3.org/2000/svg">
<path d="M7.99867 4.28809C7.46667 4.28793 6.94419 4.42925 6.4848 4.69756C6.02542 4.96587 5.64564 5.35151 5.3844 5.81496C5.12317 6.27841 4.98987 6.80298 4.99818 7.33492C5.00648 7.86686 5.15609 8.38702 5.43167 8.84209C4.74721 8.97434 4.13014 9.34076 3.68642 9.87842C3.2427 10.4161 3 11.0915 3 11.7886C3 12.4857 3.2427 13.1611 3.68642 13.6987C4.13014 14.2364 4.74721 14.6028 5.43167 14.7351M7.99867 4.28809C7.99867 3.62504 8.26206 2.98916 8.7309 2.52032C9.19974 2.05148 9.83563 1.78809 10.4987 1.78809C11.1617 1.78809 11.7976 2.05148 12.2664 2.52032C12.7353 2.98916 12.9987 3.62504 12.9987 4.28809V5.78809M7.99867 4.28809C7.99867 5.10609 8.39167 5.83209 8.99867 6.28809M5.43167 14.7351C5.15635 15.1901 5.00694 15.7102 4.99877 16.242C4.99059 16.7738 5.12394 17.2982 5.38515 17.7615C5.64635 18.2247 6.02603 18.6103 6.48527 18.8785C6.94451 19.1468 7.46682 19.2881 7.99867 19.2881C7.9988 19.9511 8.26232 20.587 8.73126 21.0557C9.20019 21.5245 9.83613 21.7877 10.4992 21.7876C11.1622 21.7875 11.798 21.5239 12.2668 21.055C12.7355 20.5861 12.9988 19.9501 12.9987 19.2871V17.7881M5.43167 14.7351C5.79055 14.141 6.34433 13.6897 6.99867 13.4581M15.4987 14.7881V16.7881M18.4987 14.7881V16.7881M15.4987 6.78809V8.78809M18.4987 6.78809V8.78809M13.9987 10.2881H11.9987M13.9987 13.2881H11.9987M21.9987 10.2881H19.9987M21.9987 13.2881H19.9987M17.9987 8.78809H15.9987C15.0557 8.78809 14.5847 8.78809 14.2917 9.08109C13.9987 9.37409 13.9987 9.84509 13.9987 10.7881V12.7881C13.9987 13.7311 13.9987 14.2021 14.2917 14.4951C14.5847 14.7881 15.0557 14.7881 15.9987 14.7881H17.9987C18.9417 14.7881 19.4127 14.7881 19.7057 14.4951C19.9987 14.2021 19.9987 13.7311 19.9987 12.7881V10.7881C19.9987 9.84509 19.9987 9.37409 19.7057 9.08109C19.4127 8.78809 18.9417 8.78809 17.9987 8.78809Z" stroke="#CFEC57" stroke-width="1.5" stroke-linecap="round" stroke-linejoin="round"/>
</svg>
