<svg width="24" height="24" viewBox="0 0 24 24" fill="none" xmlns="http://www.w3.org/2000/svg">
<path d="M3 9.64263H20.1133M12.4573 13.2454H16.0601M12.4573 16.8482H14.2587M7.05315 6.94053H7.06125M10.6559 6.94053H10.664M8.85454 9.64263V20.9014M3 12.3447C3 8.3114 3 6.29383 4.25287 5.04096C5.50574 3.78809 7.52241 3.78809 11.5566 3.78809C15.59 3.78809 17.6075 3.78809 18.8604 5.04096C20.1133 6.29383 20.1133 8.3105 20.1133 12.3447C20.1133 16.3781 20.1133 18.3956 18.8604 19.6485C17.6075 20.9014 15.5909 20.9014 11.5566 20.9014C7.52331 20.9014 5.50574 20.9014 4.25287 19.6485C3 18.3956 3 16.379 3 12.3447Z" stroke="#CFEC57" stroke-width="1.5" stroke-linecap="round" stroke-linejoin="round"/>
</svg>
