<svg width="24" height="24" viewBox="0 0 24 24" fill="none" xmlns="http://www.w3.org/2000/svg">
<path d="M4 14.1072V18.2576C4 18.4077 4.05963 18.5516 4.16576 18.6578C4.2719 18.7639 4.41586 18.8235 4.56596 18.8235H9.65957M18.1489 14.1072V18.2576C18.1489 18.4077 18.0893 18.5516 17.9832 18.6578C17.877 18.7639 17.7331 18.8235 17.583 18.8235H13.4326M13.4326 5.61787H17.583C17.7331 5.61787 17.877 5.6775 17.9832 5.78364C18.0893 5.88977 18.1489 6.03373 18.1489 6.18383V10.3342M4 10.3342V6.18383C4 6.03373 4.05963 5.88977 4.16576 5.78364C4.2719 5.6775 4.41586 5.61787 4.56596 5.61787H9.65957M13.4326 18.8235V19.7668C13.4326 20.2671 13.2339 20.747 12.8801 21.1008C12.5263 21.4546 12.0464 21.6533 11.5461 21.6533C11.0458 21.6533 10.5659 21.4546 10.2121 21.1008C9.85833 20.747 9.65957 20.2671 9.65957 19.7668V18.8235M4 10.3342H4.94326C5.4436 10.3342 5.92344 10.5329 6.27724 10.8867C6.63103 11.2405 6.82979 11.7204 6.82979 12.2207C6.82979 12.721 6.63103 13.2009 6.27724 13.5547C5.92344 13.9085 5.4436 14.1072 4.94326 14.1072H4M18.1489 10.3342H19.0922C19.5925 10.3342 20.0724 10.5329 20.4262 10.8867C20.78 11.2405 20.9787 11.7204 20.9787 12.2207C20.9787 12.721 20.78 13.2009 20.4262 13.5547C20.0724 13.9085 19.5925 14.1072 19.0922 14.1072H18.1489M13.4326 5.61787V4.67461C13.4326 4.17427 13.2339 3.69443 12.8801 3.34064C12.5263 2.98684 12.0464 2.78809 11.5461 2.78809C11.0458 2.78809 10.5659 2.98684 10.2121 3.34064C9.85833 3.69443 9.65957 4.17427 9.65957 4.67461V5.61787" stroke="#CFEC57" stroke-width="1.5" stroke-linecap="round" stroke-linejoin="round"/>
</svg>
