<svg width="24" height="24" viewBox="0 0 24 24" fill="none" xmlns="http://www.w3.org/2000/svg">
<path d="M20.6847 9.37272H16.9617L14.1693 6.5804L16.9617 3.78809H20.6847M3.46545 17.2843C3.46545 17.0374 3.56352 16.8007 3.73807 16.6261C3.91262 16.4516 4.14937 16.3535 4.39623 16.3535H20.2194C20.4662 16.3535 20.703 16.4516 20.8775 16.6261C21.0521 16.8007 21.1501 17.0374 21.1501 17.2843V20.542H3.46545V17.2843Z" stroke="#CFEC57" stroke-width="2" stroke-linecap="round" stroke-linejoin="round"/>
<path d="M4.86161 8.44237C5.88971 8.44237 6.72315 7.60893 6.72315 6.58083C6.72315 5.55273 5.88971 4.71928 4.86161 4.71928C3.8335 4.71928 3.00006 5.55273 3.00006 6.58083C3.00006 7.60893 3.8335 8.44237 4.86161 8.44237Z" stroke="#CFEC57" stroke-width="2"/>
<path d="M6.72325 6.58072H14.1694M5.79248 8.44226L9.51557 16.3538" stroke="#CFEC57" stroke-width="2" stroke-linecap="round" stroke-linejoin="round"/>
</svg>
