<svg width="24" height="24" viewBox="0 0 24 24" fill="none" xmlns="http://www.w3.org/2000/svg">
<path d="M6.11186 20.4935L8.85987 19.3705C8.61772 18.6485 8.41075 17.9136 8.23896 17.1657C8.0679 16.4178 7.94312 15.6595 7.86463 14.8908L6.40955 15.8639C6.31032 15.9357 6.23553 16.0179 6.18517 16.1105C6.13482 16.203 6.11001 16.3059 6.11075 16.4192L6.11186 20.4935ZM9.97728 19.2417H14.4203C14.7535 18.3449 15.022 17.3641 15.2256 16.2993C15.4292 15.2344 15.531 14.1255 15.531 12.9726C15.531 11.2961 15.2756 9.75251 14.7646 8.34185C14.2537 6.93119 13.3984 5.56867 12.1988 4.25428C10.9992 5.57015 10.1439 6.93304 9.63295 8.34296C9.122 9.75288 8.86653 11.2965 8.86653 12.9737C8.86653 14.1274 8.96835 15.2363 9.17199 16.3004C9.37562 17.3645 9.64406 18.3449 9.97728 19.2417ZM12.1988 13.1325C11.7301 13.1325 11.3354 12.9718 11.0147 12.6505C10.6933 12.3298 10.5327 11.9351 10.5327 11.4664C10.5327 10.9977 10.6933 10.603 11.0147 10.2823C11.3361 9.9617 11.7308 9.80101 12.1988 9.80027C12.6668 9.79953 13.0615 9.96022 13.3829 10.2823C13.7042 10.603 13.8649 10.9977 13.8649 11.4664C13.8649 11.9351 13.7042 12.3298 13.3829 12.6505C13.0615 12.9711 12.6668 13.1318 12.1988 13.1325ZM18.2857 20.4935V16.4415C18.2857 16.3274 18.2613 16.2208 18.2124 16.1216C18.162 16.0216 18.0869 15.9357 17.9869 15.8639L16.5329 14.8908C16.4545 15.6595 16.3115 16.4926 16.1042 17.39C15.8969 18.2875 15.708 18.9547 15.5377 19.3916L18.2857 20.4935ZM12.1988 2.78809C13.7324 4.14913 14.8561 5.68271 15.5699 7.38882C16.2845 9.09494 16.6418 10.9954 16.6418 13.0903C16.6418 13.1755 16.6455 13.2643 16.6529 13.3569C16.6603 13.4495 16.6566 13.5457 16.6418 13.6457L18.569 14.9442C18.8267 15.1049 19.0292 15.3196 19.1765 15.5884C19.3239 15.8572 19.3976 16.1416 19.3976 16.4415V22.1252L14.9823 20.3524H9.39414L5 22.1252V16.4204C5 16.1212 5.07035 15.8368 5.21104 15.5673C5.351 15.2985 5.54982 15.0837 5.80752 14.9231L7.75578 13.6235V13.0903C7.75578 10.9947 8.11307 9.0942 8.82765 7.38882C9.5415 5.68271 10.6652 4.14913 12.1988 2.78809Z" fill="#CFEC57"/>
</svg>
