<svg width="24" height="24" viewBox="0 0 24 24" fill="none" xmlns="http://www.w3.org/2000/svg">
<path d="M13.03 17C13.08 17.7 13.24 18.38 13.5 19H6.5C5 19 3.69 18.5 2.61 17.43C1.54 16.38 1 15.09 1 13.58C1 12.28 1.39 11.12 2.17 10.1C3.34 8.57 4 8.43 5.25 8.15C5.67 6.62 6.5 5.38 7.75 4.43C9 3.48 10.42 3 12 3C13.95 3 15.6 3.68 16.96 5.04C18.32 6.4 19 8.05 19 10H19.1C18.36 10.07 17.65 10.23 17 10.5V10C17 8.62 16.5 7.44 15.54 6.46C14.56 5.5 13.38 5 12 5C10.62 5 9.44 5.5 8.46 6.46C7.5 7.44 7 8.62 7 10H6.5C5.53 10 4.71 10.34 4.03 11.03C3.34 11.71 3 12.53 3 13.5C3 14.47 3.34 15.29 4.03 16C4.71 16.66 5.53 17 6.5 17H13.03ZM19 12.5V11L16.75 13.25L19 15.5V14C19.663 14 20.2989 14.2634 20.7678 14.7322C21.2366 15.2011 21.5 15.837 21.5 16.5C21.5 16.9 21.41 17.28 21.24 17.62L22.33 18.71C22.75 18.08 23 17.32 23 16.5C23 14.29 21.21 12.5 19 12.5ZM19 19C18.337 19 17.7011 18.7366 17.2322 18.2678C16.7634 17.7989 16.5 17.163 16.5 16.5C16.5 16.1 16.59 15.72 16.76 15.38L15.67 14.29C15.25 14.92 15 15.68 15 16.5C15 18.71 16.79 20.5 19 20.5V22L21.25 19.75L19 17.5V19Z" fill="#CFEC57"/>
</svg>
