<svg width="24" height="24" viewBox="0 0 24 24" fill="none" xmlns="http://www.w3.org/2000/svg">
<path d="M6.5 17H13V19H6.5C5 19 3.69 18.5 2.61 17.43C1.54 16.38 1 15.09 1 13.58C1 12.28 1.39 11.12 2.17 10.1C3.34 8.57 4 8.43 5.25 8.15C5.67 6.62 6.5 5.38 7.75 4.43C9 3.48 10.42 3 12 3C13.95 3 15.6 3.68 16.96 5.04C18.08 6.16 18.73 7.5 18.93 9C18.23 9 17.56 9.19 16.95 9.46C16.8512 8.32429 16.3513 7.26083 15.54 6.46C14.56 5.5 13.38 5 12 5C10.62 5 9.44 5.5 8.46 6.46C7.5 7.44 7 8.62 7 10H6.5C5.53 10 4.71 10.34 4.03 11.03C3.34 11.71 3 12.53 3 13.5C3 14.47 3.34 15.29 4.03 16C4.71 16.66 5.53 17 6.5 17ZM23 16.3V19.8C23 20.4 22.4 21 21.7 21H16.2C15.6 21 15 20.4 15 19.7V16.2C15 15.6 15.6 15 16.2 15V13.5C16.2 12.1 17.6 11 19 11C20.4 11 21.8 12.1 21.8 13.5V15C22.4 15 23 15.6 23 16.3ZM20.5 13.5C20.5 12.7 19.8 12.2 19 12.2C18.2 12.2 17.5 12.7 17.5 13.5V15H20.5V13.5Z" fill="#CFEC57"/>
</svg>
