<svg width="24" height="24" viewBox="0 0 24 24" fill="none" xmlns="http://www.w3.org/2000/svg">
<path d="M2 4.78809C2 4.25765 2.21071 3.74895 2.58579 3.37387C2.96086 2.9988 3.46957 2.78809 4 2.78809H20C20.5304 2.78809 21.0391 2.9988 21.4142 3.37387C21.7893 3.74895 22 4.25765 22 4.78809V15.7881C22 16.3185 21.7893 16.8272 21.4142 17.2023C21.0391 17.5774 20.5304 17.7881 20 17.7881H13V19.7881H16C16.2652 19.7881 16.5196 19.8934 16.7071 20.081C16.8946 20.2685 17 20.5229 17 20.7881C17 21.0533 16.8946 21.3077 16.7071 21.4952C16.5196 21.6827 16.2652 21.7881 16 21.7881H8C7.73478 21.7881 7.48043 21.6827 7.29289 21.4952C7.10536 21.3077 7 21.0533 7 20.7881C7 20.5229 7.10536 20.2685 7.29289 20.081C7.48043 19.8934 7.73478 19.7881 8 19.7881H11V17.7881H4C3.46957 17.7881 2.96086 17.5774 2.58579 17.2023C2.21071 16.8272 2 16.3185 2 15.7881V4.78809ZM20 15.7881V4.78809H4V15.7881H20Z" fill="#CFEC57"/>
</svg>
