<svg width="24" height="24" viewBox="0 0 24 24" fill="none" xmlns="http://www.w3.org/2000/svg">
<path fill-rule="evenodd" clip-rule="evenodd" d="M12.8 4H11.6C10.5357 3.99973 9.5014 4.35322 8.65987 5.00489C7.81835 5.65656 7.21729 6.56945 6.9512 7.6H6.8C5.52696 7.6 4.30606 8.10571 3.40589 9.00589C2.50571 9.90606 2 11.127 2 12.4C2 13.673 2.50571 14.8939 3.40589 15.7941C4.30606 16.6943 5.52696 17.2 6.8 17.2H16.4C17.5803 17.2017 18.7198 16.7685 19.6008 15.9832C20.4819 15.1979 21.0427 14.1155 21.1762 12.9428C21.3097 11.7701 21.0064 10.5894 20.3243 9.62614C19.6423 8.66291 18.6293 7.98474 17.4788 7.7212C17.2348 6.66318 16.6392 5.71916 15.7894 5.04329C14.9396 4.36742 13.8858 3.99964 12.8 4ZM7.8812 8.8L8.1128 7.9C8.31239 7.12699 8.76328 6.44225 9.39454 5.95349C10.0258 5.46472 10.8016 5.19966 11.6 5.2H12.8C14.486 5.2 15.9368 6.37 16.3088 7.99L16.4768 8.722L17.2088 8.8912C18.0693 9.0913 18.8262 9.6007 19.3355 10.3225C19.8448 11.0443 20.0711 11.9281 19.9712 12.8059C19.8714 13.6837 19.4523 14.4941 18.7939 15.083C18.1354 15.672 17.2834 15.9983 16.4 16H6.8C5.84522 16 4.92955 15.6207 4.25442 14.9456C3.57928 14.2705 3.2 13.3548 3.2 12.4C3.2 11.4452 3.57928 10.5295 4.25442 9.85442C4.92955 9.17928 5.84522 8.8 6.8 8.8H7.8812Z" fill="#CFEC57"/>
<path d="M12.8 20.2C12.8 20.3591 12.7368 20.5117 12.6242 20.6243C12.5117 20.7368 12.3591 20.8 12.2 20.8C12.0408 20.8 11.8882 20.7368 11.7757 20.6243C11.6632 20.5117 11.6 20.3591 11.6 20.2V11.2C11.6 11.0409 11.6632 10.8883 11.7757 10.7757C11.8882 10.6632 12.0408 10.6 12.2 10.6C12.3591 10.6 12.5117 10.6632 12.6242 10.7757C12.7368 10.8883 12.8 11.0409 12.8 11.2V20.2Z" fill="#CFEC57"/>
<path d="M9.57438 14.068C9.44953 14.1586 9.29461 14.1976 9.14177 14.1769C8.98892 14.1563 8.8499 14.0776 8.75355 13.9571C8.6572 13.8367 8.61093 13.6838 8.62434 13.5302C8.63776 13.3765 8.70982 13.2339 8.82558 13.132L11.8256 10.732C11.9504 10.6414 12.1053 10.6024 12.2582 10.6231C12.411 10.6437 12.5501 10.7224 12.6464 10.8429C12.7428 10.9633 12.789 11.1162 12.7756 11.2699C12.7622 11.4235 12.6901 11.5661 12.5744 11.668L9.57438 14.068Z" fill="#CFEC57"/>
<path d="M15.5744 13.132C15.6901 13.2339 15.7622 13.3765 15.7756 13.5302C15.789 13.6838 15.7427 13.8367 15.6464 13.9571C15.5501 14.0776 15.411 14.1563 15.2582 14.1769C15.1053 14.1976 14.9504 14.1586 14.8256 14.068L11.8256 11.668C11.7599 11.6203 11.7045 11.5598 11.6629 11.4902C11.6212 11.4205 11.5941 11.3431 11.5833 11.2626C11.5724 11.1822 11.578 11.1004 11.5997 11.0221C11.6213 10.9439 11.6587 10.8709 11.7094 10.8075C11.7601 10.7441 11.8231 10.6917 11.8947 10.6534C11.9662 10.6151 12.0448 10.5917 12.1257 10.5846C12.2066 10.5775 12.288 10.587 12.3652 10.6123C12.4423 10.6376 12.5135 10.6784 12.5744 10.732L15.5744 13.132Z" fill="#CFEC57"/>
</svg>
