<svg width="24" height="24" viewBox="0 0 24 24" fill="none" xmlns="http://www.w3.org/2000/svg">
<path d="M21.9777 4.6984C21.508 4.09465 20.8096 3.78809 19.9058 3.78809C18.3749 3.78809 16.3986 4.82496 14.6183 6.56215C13.9617 7.19424 13.3769 7.89694 12.8746 8.65746V5.10059C12.8746 4.9514 12.8153 4.80833 12.7098 4.70284C12.6043 4.59735 12.4613 4.53809 12.3121 4.53809C12.1629 4.53809 12.0198 4.59735 11.9143 4.70284C11.8088 4.80833 11.7496 4.9514 11.7496 5.10059V8.65746C11.249 7.89723 10.6661 7.19454 10.0115 6.56215C8.23301 4.82496 6.25583 3.78809 4.72489 3.78809C3.81645 3.78809 3.11801 4.09465 2.64833 4.6984C2.12989 5.36496 1.92551 6.35684 2.02395 7.73027C2.10926 8.92371 2.4102 10.2175 2.66239 11.2112C3.25114 13.5306 4.60958 14.305 5.64176 14.5562C5.36623 14.9942 5.17967 15.4821 5.09272 15.9922C5.00577 16.5023 5.02014 17.0245 5.13501 17.529C5.24988 18.0336 5.463 18.5105 5.7622 18.9327C6.0614 19.3549 6.44082 19.714 6.8788 19.9895C7.31677 20.265 7.80473 20.4516 8.31482 20.5385C8.8249 20.6255 9.34711 20.6111 9.85163 20.4962C10.3562 20.3814 10.8331 20.1683 11.2553 19.8691C11.6774 19.5699 12.0365 19.1904 12.3121 18.7525C12.8685 19.6371 13.7536 20.2645 14.7727 20.4966C15.7917 20.7287 16.8612 20.5464 17.7458 19.99C18.6305 19.4335 19.2579 18.5484 19.4899 17.5294C19.722 16.5104 19.5398 15.4409 18.9833 14.5562C20.0146 14.3096 21.374 13.5306 21.9627 11.2112C22.5824 8.77652 23.0671 6.09902 21.9777 4.6984ZM8.93708 19.5381C8.22239 19.5279 7.53816 19.247 7.02241 18.7521C6.50666 18.2573 6.19777 17.5852 6.15805 16.8716C6.11832 16.1579 6.35071 15.4557 6.80835 14.9067C7.26598 14.3576 7.91481 14.0026 8.62395 13.9131C8.69782 13.905 8.76938 13.8825 8.83454 13.8468C8.8997 13.8111 8.95718 13.7628 9.00371 13.7049C9.05024 13.647 9.08491 13.5804 9.10573 13.5091C9.12655 13.4378 9.13311 13.363 9.12505 13.2892C9.11698 13.2153 9.09445 13.1438 9.05873 13.0786C9.02301 13.0134 8.97481 12.9559 8.91687 12.9094C8.85894 12.8629 8.79241 12.8282 8.72107 12.8074C8.64974 12.7866 8.57501 12.78 8.50114 12.7881C7.8121 12.8651 7.15592 13.1239 6.59989 13.5381C5.75614 13.5671 4.33864 13.2418 3.7527 10.9356C3.44801 9.73465 2.63801 6.54527 3.53614 5.39027C3.78551 5.06871 4.17458 4.91309 4.72489 4.91309C5.93239 4.91309 7.69864 5.87684 9.22489 7.36746C10.783 8.88715 11.7496 10.5934 11.7496 11.8196V16.7256C11.7496 17.4715 11.4533 18.1869 10.9258 18.7143C10.3984 19.2418 9.683 19.5381 8.93708 19.5381ZM20.8724 10.9346C20.2874 13.2409 18.8746 13.5653 18.0308 13.5381C17.475 13.1235 16.8187 12.8646 16.1296 12.7881C16.0557 12.7797 15.9809 12.786 15.9095 12.8065C15.838 12.827 15.7713 12.8614 15.7132 12.9078C15.655 12.9541 15.6065 13.0114 15.5705 13.0764C15.5345 13.1415 15.5117 13.213 15.5033 13.2868C15.495 13.3607 15.5012 13.4355 15.5217 13.5069C15.5423 13.5784 15.5767 13.6451 15.623 13.7033C15.6693 13.7614 15.7266 13.8099 15.7917 13.8459C15.8567 13.8819 15.9282 13.9047 16.0021 13.9131C16.5439 13.9719 17.0572 14.1864 17.4798 14.5305C17.9025 14.8747 18.2164 15.3338 18.3838 15.8525C18.5512 16.3713 18.5648 16.9273 18.423 17.4536C18.2813 17.9799 17.9902 18.4539 17.5849 18.8183C17.1796 19.1828 16.6775 19.4221 16.1392 19.5074C15.6009 19.5927 15.0494 19.5204 14.5513 19.2991C14.0532 19.0778 13.6298 18.717 13.3323 18.2603C13.0347 17.8037 12.8758 17.2706 12.8746 16.7256V11.8196C12.8746 10.5934 13.8421 8.88715 15.3993 7.36746C16.9274 5.87684 18.6936 4.91309 19.9058 4.91309C20.4561 4.91309 20.8433 5.06871 21.0946 5.38934C21.988 6.54434 21.178 9.73371 20.8733 10.9346H20.8724Z" fill="#CFEC57"/>
</svg>
