<svg width="24" height="24" viewBox="0 0 24 24" fill="none" xmlns="http://www.w3.org/2000/svg">
<path d="M23.1249 11.9713C23.1237 10.9933 22.8399 10.0366 22.3076 9.21611C21.7754 8.39565 21.0174 7.74645 20.1249 7.34663V7.09631C20.124 6.14472 19.8083 5.22016 19.2271 4.46668C18.6459 3.71319 17.8318 3.1731 16.9117 2.93054C15.9915 2.68798 15.017 2.75658 14.1399 3.12565C13.2628 3.49472 12.5323 4.14353 12.0624 4.971C11.5925 4.14353 10.8621 3.49472 9.98501 3.12565C9.1079 2.75658 8.13335 2.68798 7.21319 2.93054C6.29303 3.1731 5.47893 3.71319 4.89773 4.46668C4.31654 5.22016 4.00088 6.14472 3.99993 7.09631V7.34663C3.10673 7.74511 2.34808 8.39379 1.8157 9.21426C1.28332 10.0347 1 10.9918 1 11.9699C1 12.948 1.28332 13.9051 1.8157 14.7256C2.34808 15.546 3.10673 16.1947 3.99993 16.5932V16.8463C4.00088 17.7979 4.31654 18.7225 4.89773 19.476C5.47893 20.2294 6.29303 20.7695 7.21319 21.0121C8.13335 21.2546 9.1079 21.186 9.98501 20.817C10.8621 20.4479 11.5925 19.7991 12.0624 18.9716C12.5323 19.7991 13.2628 20.4479 14.1399 20.817C15.017 21.186 15.9915 21.2546 16.9117 21.0121C17.8318 20.7695 18.6459 20.2294 19.2271 19.476C19.8083 18.7225 20.124 17.7979 20.1249 16.8463V16.5932C21.0174 16.1941 21.7755 15.5455 22.3078 14.7255C22.8401 13.9054 23.1238 12.949 23.1249 11.9713ZM8.31243 20.0338C7.484 20.0342 6.68795 19.7121 6.09295 19.1356C5.49796 18.5592 5.15076 17.7737 5.12493 16.9457C5.434 17.0043 5.74787 17.0338 6.06243 17.0338H6.81244C6.96162 17.0338 7.10469 16.9746 7.21018 16.8691C7.31567 16.7636 7.37493 16.6205 7.37493 16.4713C7.37493 16.3221 7.31567 16.1791 7.21018 16.0736C7.10469 15.9681 6.96162 15.9088 6.81244 15.9088H6.06243C5.13303 15.9096 4.23332 15.5815 3.5225 14.9828C2.81167 14.384 2.33557 13.5531 2.17843 12.6371C2.02129 11.721 2.19324 10.779 2.66385 9.97751C3.13447 9.17606 3.87342 8.56692 4.74993 8.25788C4.85965 8.21909 4.95464 8.14722 5.0218 8.05219C5.08896 7.95715 5.125 7.84362 5.12493 7.72725V7.09631C5.12493 6.25094 5.46076 5.44018 6.05853 4.84241C6.6563 4.24464 7.46706 3.90881 8.31243 3.90881C9.15781 3.90881 9.96857 4.24464 10.5663 4.84241C11.1641 5.44018 11.4999 6.25094 11.4999 7.09631V13.9448C11.0964 13.5002 10.6044 13.1451 10.0554 12.9021C9.50649 12.6591 8.91277 12.5336 8.31243 12.5338C8.16325 12.5338 8.02018 12.5931 7.91469 12.6986C7.8092 12.8041 7.74993 12.9471 7.74993 13.0963C7.74993 13.2455 7.8092 13.3886 7.91469 13.4941C8.02018 13.5996 8.16325 13.6588 8.31243 13.6588C9.15781 13.6588 9.96857 13.9946 10.5663 14.5924C11.1641 15.1902 11.4999 16.0009 11.4999 16.8463C11.4999 17.6917 11.1641 18.5024 10.5663 19.1002C9.96857 19.698 9.15781 20.0338 8.31243 20.0338ZM18.0624 15.9088H17.3124C17.1633 15.9088 17.0202 15.9681 16.9147 16.0736C16.8092 16.1791 16.7499 16.3221 16.7499 16.4713C16.7499 16.6205 16.8092 16.7636 16.9147 16.8691C17.0202 16.9746 17.1633 17.0338 17.3124 17.0338H18.0624C18.377 17.0338 18.6909 17.0043 18.9999 16.9457C18.9804 17.5715 18.777 18.1777 18.4151 18.6887C18.0532 19.1996 17.5488 19.5927 16.965 19.8188C16.3811 20.0448 15.7435 20.094 15.1319 19.96C14.5203 19.826 13.9617 19.5148 13.5258 19.0654C13.0899 18.6159 12.796 18.048 12.6809 17.4325C12.5657 16.8171 12.6344 16.1813 12.8783 15.6047C13.1222 15.028 13.5305 14.5359 14.0523 14.1899C14.5741 13.8438 15.1863 13.6591 15.8124 13.6588C15.9616 13.6588 16.1047 13.5996 16.2102 13.4941C16.3157 13.3886 16.3749 13.2455 16.3749 13.0963C16.3749 12.9471 16.3157 12.8041 16.2102 12.6986C16.1047 12.5931 15.9616 12.5338 15.8124 12.5338C15.2121 12.5336 14.6184 12.6591 14.0694 12.9021C13.5205 13.1451 13.0284 13.5002 12.6249 13.9448V7.09631C12.6249 6.25094 12.9608 5.44018 13.5585 4.84241C14.1563 4.24464 14.9671 3.90881 15.8124 3.90881C16.6578 3.90881 17.4686 4.24464 18.0663 4.84241C18.6641 5.44018 18.9999 6.25094 18.9999 7.09631V7.72725C18.9999 7.84362 19.0359 7.95715 19.1031 8.05219C19.1702 8.14722 19.2652 8.21909 19.3749 8.25788C20.2515 8.56692 20.9904 9.17606 21.461 9.97751C21.9316 10.779 22.1036 11.721 21.9464 12.6371C21.7893 13.5531 21.3132 14.384 20.6024 14.9828C19.8916 15.5815 18.9918 15.9096 18.0624 15.9088ZM19.3749 10.8463C19.3749 10.9955 19.3157 11.1386 19.2102 11.2441C19.1047 11.3496 18.9616 11.4088 18.8124 11.4088H18.4374C17.5921 11.4088 16.7813 11.073 16.1835 10.4752C15.5858 9.87744 15.2499 9.06669 15.2499 8.22131V7.84631C15.2499 7.69713 15.3092 7.55406 15.4147 7.44857C15.5202 7.34308 15.6633 7.28381 15.8124 7.28381C15.9616 7.28381 16.1047 7.34308 16.2102 7.44857C16.3157 7.55406 16.3749 7.69713 16.3749 7.84631V8.22131C16.3749 8.76832 16.5922 9.29293 16.979 9.67972C17.3658 10.0665 17.8904 10.2838 18.4374 10.2838H18.8124C18.9616 10.2838 19.1047 10.3431 19.2102 10.4486C19.3157 10.5541 19.3749 10.6971 19.3749 10.8463ZM5.68743 11.4088H5.31243C5.16325 11.4088 5.02018 11.3496 4.91469 11.2441C4.8092 11.1386 4.74993 10.9955 4.74993 10.8463C4.74993 10.6971 4.8092 10.5541 4.91469 10.4486C5.02018 10.3431 5.16325 10.2838 5.31243 10.2838H5.68743C6.23444 10.2838 6.75905 10.0665 7.14584 9.67972C7.53264 9.29293 7.74993 8.76832 7.74993 8.22131V7.84631C7.74993 7.69713 7.8092 7.55406 7.91469 7.44857C8.02018 7.34308 8.16325 7.28381 8.31243 7.28381C8.46162 7.28381 8.60469 7.34308 8.71018 7.44857C8.81567 7.55406 8.87493 7.69713 8.87493 7.84631V8.22131C8.87493 9.06669 8.53911 9.87744 7.94134 10.4752C7.34357 11.073 6.53281 11.4088 5.68743 11.4088Z" fill="#CFEC57"/>
</svg>
