<svg width="24" height="24" viewBox="0 0 24 24" fill="none" xmlns="http://www.w3.org/2000/svg">
<path fill-rule="evenodd" clip-rule="evenodd" d="M11.8103 2.78807C11.5459 2.78837 11.2896 2.87841 11.0831 3.04346C10.8767 3.20851 10.7324 3.43878 10.674 3.69654L10.3474 5.13747C9.82589 5.29026 9.33186 5.49519 8.86527 5.75227L7.61646 4.96456C7.39258 4.82325 7.12729 4.76229 6.86418 4.79172C6.60107 4.82115 6.3558 4.93921 6.16867 5.12649L5.33705 5.95812C5.1501 6.14515 5.03225 6.39016 5.00282 6.65297C4.9734 6.91578 5.03415 7.18079 5.17512 7.40453L5.96283 8.65608C5.70666 9.12176 5.50219 9.61533 5.3494 10.1368L3.90847 10.4634C3.65048 10.5219 3.42004 10.6664 3.25497 10.8731C3.08989 11.0798 2.99998 11.3365 3 11.6011V12.7771C2.99998 13.0417 3.08989 13.2984 3.25497 13.5051C3.42004 13.7118 3.65048 13.8563 3.90847 13.9148L5.3494 14.2414C5.50127 14.7629 5.7062 15.2569 5.9642 15.7235L5.17512 16.9723C5.0338 17.1962 4.97285 17.4615 5.00228 17.7246C5.03171 17.9877 5.14976 18.233 5.33705 18.4201L6.17005 19.2517C6.35708 19.4387 6.60209 19.5565 6.8649 19.5859C7.12771 19.6154 7.39272 19.5546 7.61646 19.4137L8.86664 18.6259C9.33323 18.8821 9.8268 19.0866 10.3474 19.2394L10.674 20.6803C10.7325 20.9383 10.877 21.1687 11.0837 21.3338C11.2904 21.4989 11.5471 21.5888 11.8116 21.5888H12.9877C13.2522 21.5888 13.5089 21.4989 13.7157 21.3338C13.9224 21.1687 14.0668 20.9383 14.1253 20.6803L14.452 19.2394C14.9734 19.0875 15.4675 18.883 15.9341 18.6259L17.1842 19.4137C17.408 19.5546 17.673 19.6154 17.9358 19.5859C18.1986 19.5565 18.4436 19.4387 18.6307 19.2517L19.4623 18.4201C19.6492 18.2331 19.7671 17.9881 19.7965 17.7252C19.8259 17.4624 19.7652 17.1974 19.6242 16.9737L18.8365 15.7235C19.0945 15.2569 19.2994 14.7629 19.4513 14.2414L20.8922 13.9148C21.1502 13.8563 21.3807 13.7118 21.5457 13.5051C21.7108 13.2984 21.8007 13.0417 21.8007 12.7771V11.6011C21.801 11.3363 21.7113 11.0793 21.5462 10.8723C21.3811 10.6653 21.1504 10.5206 20.8922 10.462L19.4513 10.1368C19.2994 9.61533 19.095 9.1213 18.8379 8.65471L19.6256 7.40591C19.7669 7.18203 19.8278 6.91673 19.7984 6.65362C19.769 6.39051 19.6509 6.14524 19.4637 5.95812L18.632 5.12649C18.4449 4.93921 18.1996 4.82115 17.9365 4.79172C17.6734 4.76229 17.4081 4.82325 17.1842 4.96456L15.9354 5.75227C15.4656 5.4933 14.9685 5.28712 14.4533 5.13747L14.1253 3.69654C14.0668 3.43855 13.9224 3.20811 13.7157 3.04304C13.5089 2.87796 13.2522 2.78805 12.9877 2.78807H11.8103ZM8.85978 7.1287C9.59661 6.61255 10.4373 6.26362 11.3231 6.10633L11.8116 3.95454H12.9877L13.4762 6.10633C14.3619 6.26321 15.2026 6.61167 15.9395 7.12733L17.8059 5.95125L18.6389 6.78288L17.4614 8.64922C17.9692 9.37243 18.3233 10.2082 18.4824 11.1125L20.6342 11.6011V12.7771L18.4824 13.2643C18.3258 14.1505 17.9773 14.9916 17.4614 15.729L18.6375 17.5953L17.8059 18.427L15.9395 17.2509C15.2025 17.7661 14.3618 18.114 13.4762 18.2705L12.9877 20.4223H11.8116L11.3231 18.2705C10.4379 18.1134 9.59769 17.765 8.86115 17.2495L6.99481 18.427L6.16181 17.5953L7.33926 15.729C6.82341 14.9916 6.47495 14.1505 6.31826 13.2643L4.16647 12.7785V11.6024L6.31826 11.1139C6.47533 10.2287 6.82378 9.38851 7.33926 8.65197L6.16181 6.7815L6.99343 5.94988L8.85978 7.1287ZM14.4945 12.1884C14.4945 12.7435 14.274 13.2758 13.8815 13.6682C13.4891 14.0607 12.9568 14.2812 12.4017 14.2812C11.8467 14.2812 11.3144 14.0607 10.9219 13.6682C10.5294 13.2758 10.3089 12.7435 10.3089 12.1884C10.3089 11.6334 10.5294 11.1011 10.9219 10.7086C11.3144 10.3161 11.8467 10.0956 12.4017 10.0956C12.9568 10.0956 13.4891 10.3161 13.8815 10.7086C14.274 11.1011 14.4945 11.6334 14.4945 12.1884ZM15.7296 12.1884C15.7296 13.071 15.379 13.9175 14.7549 14.5416C14.1308 15.1657 13.2843 15.5163 12.4017 15.5163C11.5191 15.5163 10.6727 15.1657 10.0486 14.5416C9.42447 13.9175 9.07386 13.071 9.07386 12.1884C9.07386 11.3058 9.42447 10.4594 10.0486 9.83527C10.6727 9.21117 11.5191 8.86056 12.4017 8.86056C13.2843 8.86056 14.1308 9.21117 14.7549 9.83527C15.379 10.4594 15.7296 11.3058 15.7296 12.1884Z" fill="#CFEC57"/>
</svg>
