<svg width="24" height="24" viewBox="0 0 24 24" fill="none" xmlns="http://www.w3.org/2000/svg">
<path fill-rule="evenodd" clip-rule="evenodd" d="M18.2336 2.02232C18.3836 1.87234 18.5871 1.78809 18.7992 1.78809C19.0113 1.78809 19.2148 1.87234 19.3648 2.02232L22.5648 5.22231C22.6393 5.29663 22.6984 5.38491 22.7387 5.4821C22.7791 5.57929 22.7998 5.68349 22.7998 5.78872C22.7998 5.89394 22.7791 5.99814 22.7387 6.09533C22.6984 6.19252 22.6393 6.2808 22.5648 6.35512L16.2576 12.6623C16.136 12.7843 15.9956 12.8859 15.8416 12.9631L9.5584 16.1039C9.40834 16.1788 9.23854 16.2047 9.073 16.1778C8.90745 16.1509 8.75453 16.0727 8.63585 15.9542C8.51718 15.8357 8.43874 15.6829 8.41164 15.5174C8.38453 15.3519 8.41012 15.1821 8.4848 15.0319L11.6256 8.74712C11.7028 8.59316 11.8044 8.45269 11.9264 8.33112L18.2336 2.02232ZM18.8 3.71992L13.056 9.46392L11.3968 12.7855L11.8032 13.1919L15.1264 11.5311L20.8688 5.78872L18.8 3.71992ZM14.8 3.38872L13.2 4.98872H6.64C5.9552 4.98872 5.488 4.98872 5.1296 5.01912C4.7776 5.04792 4.5984 5.09911 4.4736 5.16311C4.17255 5.31651 3.9278 5.56127 3.7744 5.86232C3.7104 5.98712 3.6592 6.16632 3.6304 6.51832C3.6 6.87672 3.6 7.34392 3.6 8.02872V17.9487C3.6 18.6335 3.6 19.1007 3.6304 19.4591C3.6592 19.8111 3.7104 19.9903 3.7744 20.1151C3.9278 20.4162 4.17255 20.6609 4.4736 20.8143C4.5984 20.8783 4.7776 20.9295 5.1296 20.9583C5.4896 20.9887 5.9552 20.9887 6.64 20.9887H16.56C17.2448 20.9887 17.712 20.9887 18.0704 20.9583C18.4224 20.9295 18.6016 20.8783 18.7264 20.8143C19.0274 20.6609 19.2722 20.4162 19.4256 20.1151C19.4896 19.9903 19.5408 19.8111 19.5696 19.4591C19.6 19.0991 19.6 18.6335 19.6 17.9487V11.3887L21.2 9.78872V17.9807C21.2 18.6255 21.2 19.1567 21.1648 19.5903C21.128 20.0399 21.0496 20.4543 20.8512 20.8415C20.5444 21.4436 20.0549 21.9331 19.4528 22.2399C19.064 22.4383 18.6512 22.5167 18.2016 22.5535C17.7696 22.5887 17.2368 22.5887 16.5936 22.5887H6.608C5.9632 22.5887 5.432 22.5887 4.9984 22.5535C4.5488 22.5167 4.1344 22.4383 3.7472 22.2399C3.14511 21.9331 2.65559 21.4436 2.3488 20.8415C2.1504 20.4527 2.072 20.0399 2.0352 19.5903C2 19.1583 2 18.6255 2 17.9807V7.99672C2 7.35192 2 6.82072 2.0352 6.38712C2.072 5.93752 2.1504 5.52312 2.3488 5.13592C2.65559 4.53382 3.14511 4.04431 3.7472 3.73751C4.136 3.53911 4.5488 3.46072 4.9984 3.42392C5.4304 3.38872 5.9632 3.38872 6.608 3.38872H14.8Z" fill="#CFEC57"/>
</svg>
