<svg width="24" height="24" viewBox="0 0 24 24" fill="none" xmlns="http://www.w3.org/2000/svg">
<path d="M17.713 11.9172L17.467 12.4832C17.4286 12.5753 17.3637 12.6541 17.2806 12.7094C17.1975 12.7648 17.0999 12.7944 17 12.7944C16.9001 12.7944 16.8025 12.7648 16.7194 12.7094C16.6363 12.6541 16.5714 12.5753 16.533 12.4832L16.287 11.9172C15.8545 10.9159 15.0624 10.1131 14.067 9.66717L13.308 9.32817C13.2159 9.28581 13.1379 9.21794 13.0832 9.1326C13.0286 9.04725 12.9995 8.94802 12.9995 8.84667C12.9995 8.74531 13.0286 8.64608 13.0832 8.56074C13.1379 8.4754 13.2159 8.40752 13.308 8.36517L14.025 8.04617C15.0454 7.58755 15.8511 6.75505 16.276 5.72017L16.529 5.10917C16.5662 5.01452 16.631 4.93327 16.715 4.87599C16.799 4.81872 16.8983 4.78809 17 4.78809C17.1017 4.78809 17.201 4.81872 17.285 4.87599C17.369 4.93327 17.4338 5.01452 17.471 5.10917L17.724 5.71917C18.1485 6.75424 18.9538 7.5871 19.974 8.04617L20.692 8.36617C20.7838 8.40865 20.8615 8.47651 20.916 8.56174C20.9705 8.64697 20.9994 8.74601 20.9994 8.84717C20.9994 8.94832 20.9705 9.04736 20.916 9.13259C20.8615 9.21782 20.7838 9.28569 20.692 9.32817L19.932 9.66617C18.9368 10.1125 18.1451 10.9157 17.713 11.9172ZM2.828 13.7892L7.071 18.0322L5.657 19.4462L0 13.7892L5.657 8.13217L7.07 9.54617L2.828 13.7892ZM18.343 19.4462L24 13.7892L21.17 10.9612L19.756 12.3752L21.171 13.7892L16.929 18.0322L18.343 19.4462Z" fill="#CFEC57"/>
</svg>
