<svg width="24" height="24" viewBox="0 0 24 24" fill="none" xmlns="http://www.w3.org/2000/svg">
<path d="M2 11.6387C2 7.46651 2 5.38042 3.464 4.08381C4.93 2.78809 7.286 2.78809 12 2.78809C16.714 2.78809 19.071 2.78809 20.535 4.08381C22 5.38131 22 7.46651 22 11.6387C22 15.8108 22 17.8969 20.535 19.1926C19.072 20.4893 16.714 20.4893 12 20.4893C7.286 20.4893 4.929 20.4893 3.464 19.1926C2 17.8978 2 15.8108 2 11.6387Z" stroke="#CFEC57" stroke-width="1.5"/>
<path d="M6 15.0019L7.143 16.064L10 13.4088M6 8.80648L7.143 9.86855L10 7.21338" stroke="#CFEC57" stroke-width="1.5" stroke-linecap="round" stroke-linejoin="round"/>
<path d="M13 8.9835H18M13 15.1789H18" stroke="#CFEC57" stroke-width="1.5" stroke-linecap="round"/>
</svg>
