<svg width="24" height="24" viewBox="0 0 24 24" fill="none" xmlns="http://www.w3.org/2000/svg">
<path d="M12 16.0039H6.657C4.085 15.9999 2 13.9929 2 11.5169C2 9.04088 4.085 7.03488 6.657 7.03488C7.05 5.27288 8.451 3.83488 10.332 3.26188C12.212 2.68988 14.288 3.06888 15.776 4.26188C17.264 5.45188 17.938 7.26888 17.546 9.03088H18.536C19.492 9.03088 20.358 9.42088 20.985 10.0509M19.001 18.9999C18.4706 18.9999 17.9619 18.7892 17.5868 18.4141C17.2117 18.039 17.001 17.5303 17.001 16.9999C17.001 16.4695 17.2117 15.9607 17.5868 15.5857C17.9619 15.2106 18.4706 14.9999 19.001 14.9999M19.001 18.9999C19.5314 18.9999 20.0401 18.7892 20.4152 18.4141C20.7903 18.039 21.001 17.5303 21.001 16.9999C21.001 16.4695 20.7903 15.9607 20.4152 15.5857C20.0401 15.2106 19.5314 14.9999 19.001 14.9999M19.001 18.9999V20.4999M19.001 14.9999V13.4999M22.032 15.2499L20.733 15.9999M17.27 17.9999L15.97 18.7499M15.97 15.2499L17.27 15.9999M20.733 17.9999L22.033 18.7499" stroke="#CFEC57" stroke-width="2" stroke-linecap="round" stroke-linejoin="round"/>
</svg>
