<svg width="24" height="24" viewBox="0 0 24 24" fill="none" xmlns="http://www.w3.org/2000/svg">
<path d="M4 19.7881V17.7881C4 16.7272 4.42143 15.7098 5.17157 14.9597C5.92172 14.2095 6.93913 13.7881 8 13.7881H10.5M17.001 19.7881C16.4706 19.7881 15.9619 19.5774 15.5868 19.2023C15.2117 18.8272 15.001 18.3185 15.001 17.7881C15.001 17.2577 15.2117 16.7489 15.5868 16.3739C15.9619 15.9988 16.4706 15.7881 17.001 15.7881M17.001 19.7881C17.5314 19.7881 18.0401 19.5774 18.4152 19.2023C18.7903 18.8272 19.001 18.3185 19.001 17.7881C19.001 17.2577 18.7903 16.7489 18.4152 16.3739C18.0401 15.9988 17.5314 15.7881 17.001 15.7881M17.001 19.7881V21.2881M17.001 15.7881V14.2881M20.032 16.0381L18.733 16.7881M15.27 18.7881L13.97 19.5381M13.97 16.0381L15.27 16.7881M18.733 18.7881L20.033 19.5381M6 5.78809C6 6.84895 6.42143 7.86637 7.17157 8.61651C7.92172 9.36666 8.93913 9.78809 10 9.78809C11.0609 9.78809 12.0783 9.36666 12.8284 8.61651C13.5786 7.86637 14 6.84895 14 5.78809C14 4.72722 13.5786 3.7098 12.8284 2.95966C12.0783 2.20951 11.0609 1.78809 10 1.78809C8.93913 1.78809 7.92172 2.20951 7.17157 2.95966C6.42143 3.7098 6 4.72722 6 5.78809Z" stroke="#CFEC57" stroke-width="2" stroke-linecap="round" stroke-linejoin="round"/>
</svg>
